<svg width="28" height="28" viewBox="0 0 28 28" fill="none" xmlns="http://www.w3.org/2000/svg">
<path d="M11.6529 19.3933L7.69998 20.505L9.14115 25.6521C9.42939 26.6815 10.5 27.3815 11.6941 27.0933C12.8059 26.805 13.4235 25.6521 13.1353 24.5403L11.6529 19.3933ZM23.8 14.2462C25.4059 13.5874 26.3117 11.7756 25.8588 10.0462C25.4059 8.31681 23.6764 7.24622 21.947 7.53445L20.3823 1.93446C20.1353 1.11093 19.3117 0.657985 18.5294 0.863867C17.7059 1.11093 17.2529 1.93446 17.4588 2.71681L22.4412 20.6286C22.647 21.4109 23.4706 21.905 24.2941 21.6992C25.1176 21.4933 25.5706 20.6286 25.3235 19.8462L23.8 14.2462ZM9.7588 10.0874C9.63527 10.2109 9.59409 10.3345 9.63527 10.4992L11.7353 18.1168C11.7764 18.2815 11.9 18.3639 12.0235 18.405L21.5764 20.7109L16.7176 3.16975L9.7588 10.0874ZM10.9941 18.3227C8.81174 10.3345 8.81174 10.7462 8.85292 10.2933L5.14703 11.3227C4.81762 11.405 4.52939 11.6521 4.36468 11.9403C4.24115 12.1462 4.19997 12.3521 4.19997 12.5992C2.63527 13.2168 1.68821 14.9874 2.18233 16.6756C2.59409 18.1992 3.95292 19.1874 5.47645 19.1874C5.68233 19.1874 5.84703 19.1874 6.05292 19.1462C6.2588 19.558 6.71174 19.805 7.16468 19.805C7.28821 19.805 7.41174 19.805 7.49409 19.7639L11.2 18.7345C11.0764 18.5697 10.9941 18.4462 10.9941 18.3227Z" fill="#444444"/>
</svg>
