<svg width="24" height="25" viewBox="0 0 24 25" fill="none" xmlns="http://www.w3.org/2000/svg">
<g clip-path="url(#clip0_2394_24990)">
<path d="M21 0.5H3C1.3455 0.5 0 1.8455 0 3.5V21.5C0 23.1545 1.3455 24.5 3 24.5H21C22.6545 24.5 24 23.1545 24 21.5V3.5C24 1.8455 22.6545 0.5 21 0.5Z" fill="#1976D2" fill-opacity="0.6"/>
<path fill-rule="evenodd" clip-rule="evenodd" d="M20.25 12.5H16.5V9.5C16.5 8.672 17.172 8.75 18 8.75H19.5V5H16.5C15.3065 5 14.1619 5.47411 13.318 6.31802C12.4741 7.16193 12 8.30653 12 9.5V12.5H9V16.25H12V24.5H16.5V16.25H18.75L20.25 12.5Z" fill="#FAFAFA" fill-opacity="0.6"/>
</g>
<defs>
<clipPath id="clip0_2394_24990">
<rect width="24" height="24" fill="white" transform="translate(0 0.5)"/>
</clipPath>
</defs>
</svg>
