 <svg
                              width="24"
                              height="25"
                              viewBox="0 0 24 25"
                              fill="none"
                              xmlns="http://www.w3.org/2000/svg"
                            >
                              <path
                                d="M9.98821 16.9716L6.59998 17.9245L7.83527 22.3363C8.08233 23.2186 8.99998 23.8186 10.0235 23.5716C10.9764 23.3245 11.5059 22.3363 11.2588 21.3833L9.98821 16.9716ZM20.4 12.5598C21.7764 11.9951 22.5529 10.4422 22.1647 8.95982C21.7764 7.47746 20.2941 6.55982 18.8117 6.80688L17.4706 2.00688C17.2588 1.30099 16.5529 0.912759 15.8823 1.08923C15.1764 1.30099 14.7882 2.00688 14.9647 2.67746L19.2353 18.0304C19.4117 18.701 20.1176 19.1245 20.8235 18.9481C21.5294 18.7716 21.9176 18.0304 21.7059 17.3598L20.4 12.5598ZM8.36468 8.99511C8.2588 9.10099 8.22351 9.20688 8.2588 9.34805L10.0588 15.8775C10.0941 16.0186 10.2 16.0892 10.3059 16.1245L18.4941 18.101L14.3294 3.0657L8.36468 8.99511ZM9.42351 16.0539C7.55292 9.20688 7.55292 9.55982 7.58821 9.17158L4.41174 10.0539C4.12939 10.1245 3.88233 10.3363 3.74115 10.5833C3.63527 10.7598 3.59998 10.9363 3.59998 11.1481C2.2588 11.6775 1.44704 13.1951 1.87057 14.6422C2.22351 15.9481 3.38821 16.7951 4.6941 16.7951C4.87057 16.7951 5.01174 16.7951 5.18821 16.7598C5.36468 17.1128 5.75292 17.3245 6.14115 17.3245C6.24704 17.3245 6.35292 17.3245 6.42351 17.2892L9.59998 16.4069C9.4941 16.2657 9.42351 16.1598 9.42351 16.0539Z"
                                fill="#404040"
                              />
                            </svg>