<svg width="19" height="19" viewBox="0 0 19 19" fill="none" xmlns="http://www.w3.org/2000/svg">
<path d="M6.00025 8.625C5.82719 8.625 5.65802 8.67632 5.51412 8.77246C5.37023 8.86861 5.25808 9.00527 5.19185 9.16515C5.12563 9.32504 5.1083 9.50097 5.14206 9.6707C5.17582 9.84044 5.25916 9.99635 5.38153 10.1187C5.5039 10.2411 5.65981 10.3244 5.82955 10.3582C5.99928 10.3919 6.17521 10.3746 6.3351 10.3084C6.49498 10.2422 6.63164 10.13 6.72778 9.98612C6.82393 9.84223 6.87525 9.67306 6.87525 9.5C6.87525 9.26794 6.78306 9.04538 6.61897 8.88128C6.45487 8.71719 6.23231 8.625 6.00025 8.625ZM9.50025 8.625C9.32719 8.625 9.15802 8.67632 9.01412 8.77246C8.87023 8.86861 8.75808 9.00527 8.69185 9.16515C8.62563 9.32504 8.6083 9.50097 8.64206 9.6707C8.67582 9.84044 8.75916 9.99635 8.88153 10.1187C9.0039 10.2411 9.15981 10.3244 9.32955 10.3582C9.49928 10.3919 9.67521 10.3746 9.8351 10.3084C9.99498 10.2422 10.1316 10.13 10.2278 9.98612C10.3239 9.84223 10.3752 9.67306 10.3752 9.5C10.3752 9.26794 10.2831 9.04538 10.119 8.88128C9.95487 8.71719 9.73231 8.625 9.50025 8.625ZM13.0002 8.625C12.8272 8.625 12.658 8.67632 12.5141 8.77246C12.3702 8.86861 12.2581 9.00527 12.1919 9.16515C12.1256 9.32504 12.1083 9.50097 12.1421 9.6707C12.1758 9.84044 12.2592 9.99635 12.3815 10.1187C12.5039 10.2411 12.6598 10.3244 12.8295 10.3582C12.9993 10.3919 13.1752 10.3746 13.3351 10.3084C13.495 10.2422 13.6316 10.13 13.7278 9.98612C13.8239 9.84223 13.8752 9.67306 13.8752 9.5C13.8752 9.26794 13.7831 9.04538 13.619 8.88128C13.4549 8.71719 13.2323 8.625 13.0002 8.625ZM9.50025 0.75C8.35118 0.75 7.21337 0.976325 6.15177 1.41605C5.09017 1.85578 4.12558 2.5003 3.31306 3.31282C1.67212 4.95376 0.750249 7.17936 0.750249 9.5C0.7426 11.5205 1.44219 13.48 2.72775 15.0387L0.977749 16.7887C0.856336 16.9118 0.774089 17.068 0.741387 17.2378C0.708685 17.4075 0.726992 17.5832 0.793999 17.7425C0.866675 17.8999 0.98449 18.0322 1.13249 18.1226C1.28049 18.2129 1.452 18.2573 1.62525 18.25H9.50025C11.8209 18.25 14.0465 17.3281 15.6874 15.6872C17.3284 14.0462 18.2502 11.8206 18.2502 9.5C18.2502 7.17936 17.3284 4.95376 15.6874 3.31282C14.0465 1.67187 11.8209 0.75 9.50025 0.75ZM9.50025 16.5H3.734L4.54775 15.6862C4.63043 15.6052 4.6962 15.5086 4.74126 15.4019C4.78632 15.2953 4.80977 15.1808 4.81025 15.065C4.80696 14.8342 4.71261 14.6141 4.54775 14.4525C3.40201 13.308 2.68853 11.8017 2.52885 10.1902C2.36918 8.57867 2.7732 6.96163 3.67207 5.61458C4.57095 4.26753 5.90907 3.27381 7.45845 2.80273C9.00783 2.33164 10.6726 2.41233 12.1692 3.03105C13.6658 3.64977 14.9015 4.76824 15.6659 6.1959C16.4303 7.62357 16.676 9.2721 16.3612 10.8606C16.0465 12.4492 15.1906 13.8794 13.9396 14.9077C12.6885 15.936 11.1197 16.4987 9.50025 16.5Z" fill="#7C7C7C"/>
</svg>
