<svg width="50" height="50" viewBox="0 0 50 50" fill="none" xmlns="http://www.w3.org/2000/svg">
<path d="M24.6562 46.8359C13.7578 46.8359 2 40 2 25C2 10 13.7578 3.16406 24.6562 3.16406C30.7109 3.16406 36.2969 5.15625 40.4375 8.78906C44.9297 12.7734 47.3125 18.3984 47.3125 25C47.3125 31.6016 44.9297 37.1875 40.4375 41.1719C36.2969 44.8047 30.6719 46.8359 24.6562 46.8359Z" fill="url(#paint0_radial_2867_32457)"/>
<path d="M43.3633 12.0195C45.4453 15.3789 46.5312 19.3789 46.5312 23.8281C46.5312 30.4297 44.1484 36.0156 39.6562 40C35.5156 43.6328 29.8906 45.6641 23.875 45.6641C16.8203 45.6641 9.42188 42.793 5.05469 36.7031C9.25781 43.6016 17.1641 46.8359 24.6562 46.8359C30.6719 46.8359 36.2969 44.8047 40.4375 41.1719C44.9297 37.1875 47.3125 31.6016 47.3125 25C47.3125 20.0234 45.957 15.6016 43.3633 12.0195Z" fill="#EB8F00"/>
<path d="M24.9692 32.9687C23.5708 32.9687 22.1841 32.7344 20.8677 32.2656C19.2466 31.707 17.4849 32.5703 16.9263 34.1875C16.6099 35.1016 16.7388 36.1094 17.2739 36.9141C18.9536 39.4922 21.6099 40.8984 24.9692 40.8984C28.3286 40.8984 30.9849 39.4922 32.6645 36.9141C33.6138 35.4883 33.2231 33.5625 31.7974 32.6133C30.9927 32.0781 29.9849 31.9492 29.0708 32.2656C27.7544 32.7344 26.3677 32.9687 24.9692 32.9687Z" fill="#422B0D"/>
<path opacity="0.8" d="M13.1719 35.2734C16.9473 35.2734 20.0078 32.3878 20.0078 28.8281C20.0078 25.2685 16.9473 22.3828 13.1719 22.3828C9.39649 22.3828 6.33594 25.2685 6.33594 28.8281C6.33594 32.3878 9.39649 35.2734 13.1719 35.2734Z" fill="url(#paint1_radial_2867_32457)"/>
<path opacity="0.8" d="M36.7656 35.2734C40.541 35.2734 43.6016 32.3878 43.6016 28.8281C43.6016 25.2685 40.541 22.3828 36.7656 22.3828C32.9902 22.3828 29.9297 25.2685 29.9297 28.8281C29.9297 32.3878 32.9902 35.2734 36.7656 35.2734Z" fill="url(#paint2_radial_2867_32457)"/>
<path d="M41.8397 13.8555C38.6327 12.9531 36.2772 15.5742 36.2772 15.5742C36.2772 15.5742 36.0038 12.6016 33.2616 11.668C29.9725 10.5391 26.4999 12.3359 26.2928 16.9961C26.0585 22.3047 33.0819 29.2734 33.0819 29.2734C33.0819 29.2734 41.8007 26.9297 44.6561 21.9609C46.9803 17.918 44.2655 14.5351 41.8397 13.8555Z" fill="#F44336"/>
<path d="M41.8398 13.8556C41.4453 13.7501 41.0391 13.7032 40.6328 13.711C41.7812 14.4806 42.6914 15.5548 43.2578 16.8126C43.8086 18.1368 43.9531 19.8478 42.9062 21.8907C40.6367 26.3321 33.6484 29.0821 33.1406 29.2735C33.7773 29.0939 41.9258 26.7501 44.6719 21.9728C46.9805 17.9181 44.2656 14.5353 41.8398 13.8556Z" fill="#C62828"/>
<path d="M36.2734 16.0547C36.25 15.6484 36.1875 15.2422 36.0938 14.8438C35.8672 13.6953 35.1563 12.6992 34.1406 12.1094C33.4453 11.7031 32.6758 11.4453 31.8789 11.3477C31.8789 11.3477 33.0508 11.7031 33.8867 13.3242C34.3125 14.1758 34.5664 15.1055 34.6289 16.0547C34.625 16.4023 34.6875 16.7422 34.8125 17.0664C34.9531 17.3906 35.2969 17.582 35.6484 17.5273C36.1836 17.3906 36.3008 16.7227 36.2734 16.0547Z" fill="#C62828"/>
<path d="M28.6797 14.1914C29.4101 13.2851 30.6094 12.4219 31.7578 13.2187C32.3672 13.6445 32.375 14.8515 31.6289 15.3945C30.3711 16.3164 30.3125 16.9219 30.1719 17.4297C30 18.0351 29.8906 18.7578 29.3398 19.0625C28.789 19.3672 28.3047 19.0625 28.0156 18.1914C27.5234 16.832 27.7734 15.3164 28.6797 14.1914Z" fill="#FF847A"/>
<path d="M15.7192 11.5898C12.5512 12.6172 12.0434 16.1055 12.0434 16.1055C12.0434 16.1055 10.1684 13.7617 7.35589 14.5195C4.00042 15.4023 2.10589 18.8242 4.50042 22.8125C7.27386 27.3828 16.977 29.2773 16.977 29.2773C16.977 29.2773 22.934 22.4961 22.559 16.7773C22.2504 12.1211 18.1137 10.8125 15.7192 11.5898Z" fill="#F44336"/>
<path d="M15.7188 11.5899C15.332 11.7149 14.9609 11.8946 14.6211 12.1211C16.0039 12.125 17.3555 12.5157 18.5273 13.25C19.7227 14.0313 20.7891 15.3907 21.0547 17.6758C21.6289 22.6328 17.332 28.793 17 29.2422C17.4336 28.7422 22.9141 22.2735 22.5547 16.7735C22.25 12.1211 18.1133 10.8125 15.7188 11.5899Z" fill="#C62828"/>
<path d="M12.3125 16.5156C12.0703 16.1835 11.7969 15.8788 11.4922 15.6054C10.6719 14.7695 9.53516 14.3242 8.36719 14.3867C7.56641 14.4335 6.78125 14.6406 6.0625 15.0038C6.0625 15.0038 7.23437 14.6484 8.82812 15.539C9.66016 16.0195 10.3828 16.664 10.9609 17.4296C11.1484 17.7226 11.3906 17.9726 11.6758 18.1718C11.9727 18.3632 12.3633 18.3281 12.625 18.0898C12.9727 17.6679 12.7031 17.0507 12.3125 16.5156Z" fill="#C62828"/>
<path d="M4.96856 19.1796C4.98418 18.8515 5.04278 18.5273 5.14043 18.2148C5.30059 17.5585 5.76543 17.0155 6.38653 16.7538C6.98418 16.5663 7.81231 16.6991 8.13262 17.2968C8.41778 17.828 8.21075 18.4687 8.0545 19.0546C7.91387 19.7265 7.83575 20.414 7.82012 21.1015C7.82403 21.664 7.37481 22.121 6.81231 22.1288C6.28106 22.1288 5.867 21.6679 5.57012 21.2265C5.15606 20.6249 4.94512 19.9101 4.96856 19.1796Z" fill="#FF847A"/>
<defs>
<radialGradient id="paint0_radial_2867_32457" cx="0" cy="0" r="1" gradientUnits="userSpaceOnUse" gradientTransform="translate(24.6562 25) scale(22.2499)">
<stop offset="0.5" stop-color="#FDE030"/>
<stop offset="0.92" stop-color="#F7C02B"/>
<stop offset="1" stop-color="#F4A223"/>
</radialGradient>
<radialGradient id="paint1_radial_2867_32457" cx="0" cy="0" r="1" gradientUnits="userSpaceOnUse" gradientTransform="translate(13.1719 25.8635) scale(7.44995 6.68975)">
<stop stop-color="#ED7770"/>
<stop offset="0.9" stop-color="#ED7770" stop-opacity="0"/>
</radialGradient>
<radialGradient id="paint2_radial_2867_32457" cx="0" cy="0" r="1" gradientUnits="userSpaceOnUse" gradientTransform="translate(47.9063 987.77) scale(7.60156)">
<stop stop-color="#ED7770"/>
<stop offset="0.9" stop-color="#ED7770" stop-opacity="0"/>
</radialGradient>
</defs>
</svg>
