<svg width="84" height="84" viewBox="0 0 84 84" fill="none" xmlns="http://www.w3.org/2000/svg">
<rect x="0.5" y="0.5" width="82.9971" height="82.9971" rx="11.5" stroke="#004AAD"/>
<path d="M35.3303 49.6754C33.6667 49.6754 32.0712 49.0432 30.8949 47.918C29.7185 46.7928 29.0576 45.2667 29.0576 43.6754C29.0576 42.0841 29.7185 40.558 30.8949 39.4328C32.0712 38.3075 33.6667 37.6754 35.3303 37.6754C35.7233 35.925 36.8727 34.3867 38.5258 33.399C39.3443 32.91 40.2619 32.5708 41.226 32.4009C42.1902 32.231 43.1821 32.2336 44.1452 32.4087C45.1082 32.5838 46.0235 32.9279 46.8387 33.4214C47.654 33.9148 48.3533 34.5479 48.8967 35.2846C49.4401 36.0213 49.8169 36.8471 50.0057 37.7149C50.1945 38.5826 50.1916 39.4753 49.997 40.3421H51.3303C52.568 40.3421 53.755 40.8337 54.6302 41.7089C55.5053 42.5841 55.997 43.771 55.997 45.0087C55.997 46.2464 55.5053 47.4334 54.6302 48.3086C53.755 49.1837 52.568 49.6754 51.3303 49.6754H49.997" stroke="#004AAD" stroke-width="2" stroke-linecap="round" stroke-linejoin="round"/>
<path d="M37.9971 45.6758L41.9971 41.6758L45.9971 45.6758" stroke="#004AAD" stroke-width="2" stroke-linecap="round" stroke-linejoin="round"/>
<path d="M41.9971 41.6758V53.6758" stroke="#004AAD" stroke-width="2" stroke-linecap="round" stroke-linejoin="round"/>
</svg>
