<svg width="21" height="21" viewBox="0 0 21 21" fill="none" xmlns="http://www.w3.org/2000/svg">
<path d="M10.5 1.75C8.64412 1.75208 6.86486 2.49025 5.55255 3.80255C4.24025 5.11486 3.50208 6.89412 3.5 8.75C3.5 11.5981 5.56763 13.9633 7.75775 16.4666C8.45075 17.2594 9.16825 18.0793 9.807 18.9088C9.88874 19.0148 9.99372 19.1007 10.1139 19.1597C10.234 19.2188 10.3661 19.2495 10.5 19.2495C10.6339 19.2495 10.766 19.2188 10.8861 19.1597C11.0063 19.1007 11.1113 19.0148 11.193 18.9088C11.8317 18.0793 12.5492 17.2594 13.2422 16.4666C15.4324 13.9633 17.5 11.5981 17.5 8.75C17.4979 6.89412 16.7597 5.11486 15.4474 3.80255C14.1351 2.49025 12.3559 1.75208 10.5 1.75ZM10.5 11.375C9.98082 11.375 9.47331 11.221 9.04163 10.9326C8.60995 10.6442 8.2735 10.2342 8.07482 9.75454C7.87614 9.27489 7.82415 8.74709 7.92544 8.23789C8.02672 7.72869 8.27673 7.26096 8.64384 6.89384C9.01096 6.52673 9.47869 6.27672 9.98789 6.17544C10.4971 6.07415 11.0249 6.12614 11.5045 6.32482C11.9842 6.5235 12.3942 6.85995 12.6826 7.29163C12.971 7.72331 13.125 8.23082 13.125 8.75C13.125 9.44619 12.8484 10.1139 12.3562 10.6062C11.8639 11.0984 11.1962 11.375 10.5 11.375Z" fill="#676767"/>
</svg>
