<svg width="21" height="21" viewBox="0 0 21 21" fill="none" xmlns="http://www.w3.org/2000/svg">
<path d="M10.5002 9.71906L18.887 4.33125C18.5498 4.07834 18.1404 3.94032 17.7189 3.9375H3.28141C2.85992 3.94032 2.45047 4.07834 2.11328 4.33125L10.5002 9.71906Z" fill="#676767"/>
<path d="M10.8544 11.0505L10.7428 11.103H10.6903C10.6299 11.13 10.5657 11.1477 10.5 11.1555C10.4455 11.1624 10.3904 11.1624 10.3359 11.1555H10.2834L10.1719 11.103L1.37812 5.41992C1.33611 5.57843 1.31406 5.74157 1.3125 5.90555V15.093C1.3125 15.6152 1.51992 16.116 1.88913 16.4852C2.25835 16.8544 2.75911 17.0618 3.28125 17.0618H17.7188C18.2409 17.0618 18.7417 16.8544 19.1109 16.4852C19.4801 16.116 19.6875 15.6152 19.6875 15.093V5.90555C19.6859 5.74157 19.6639 5.57843 19.6219 5.41992L10.8544 11.0505Z" fill="#676767"/>
</svg>
