<svg width="17" height="18" viewBox="0 0 17 18" fill="none" xmlns="http://www.w3.org/2000/svg">
<g clip-path="url(#clip0_2388_24736)">
<path d="M5.96669 1.20425C6.1598 1.20425 6.34501 1.28089 6.48156 1.41733C6.61811 1.55376 6.69482 1.7388 6.69482 1.93174V6.15521C6.6955 6.25094 6.67712 6.34584 6.64077 6.4344C6.60441 6.52297 6.5508 6.60344 6.48306 6.67112C6.41531 6.73881 6.33477 6.79237 6.24613 6.82869C6.15748 6.86502 6.06249 6.88337 5.96669 6.8827H1.75967C1.66236 6.8854 1.56549 6.86858 1.47481 6.83324C1.38412 6.79789 1.30144 6.74473 1.23167 6.67691C1.1619 6.60908 1.10645 6.52797 1.0686 6.43836C1.03075 6.34875 1.01127 6.25247 1.0113 6.15521V1.95195C1.00924 1.85319 1.02718 1.75504 1.06406 1.66339C1.10093 1.57174 1.15598 1.48849 1.22589 1.41864C1.2958 1.3488 1.37912 1.2938 1.47085 1.25696C1.56258 1.22011 1.66082 1.20218 1.75967 1.20425H5.96669ZM5.96669 0.193848H1.75967C1.29297 0.193848 0.845396 0.379075 0.515395 0.708783C0.185393 1.03849 0 1.48567 0 1.95195L0 6.15521C-1.9177e-06 6.62196 0.185229 7.06966 0.515086 7.40017C0.844943 7.73068 1.29251 7.91703 1.75967 7.91836H5.96669C6.43431 7.91703 6.8824 7.73084 7.21306 7.40048C7.54372 7.07011 7.73008 6.62242 7.73141 6.15521V1.95195C7.73007 1.48521 7.54356 1.03804 7.21275 0.708475C6.88195 0.378912 6.43385 0.193846 5.96669 0.193848ZM15.2353 1.20425C15.4284 1.20425 15.6136 1.28089 15.7501 1.41733C15.8867 1.55376 15.9634 1.7388 15.9634 1.93174V6.15521C15.9641 6.25094 15.9457 6.34584 15.9094 6.4344C15.873 6.52297 15.8194 6.60344 15.7516 6.67112C15.6839 6.73881 15.6034 6.79237 15.5147 6.82869C15.4261 6.86502 15.3311 6.88337 15.2353 6.8827H11.0283C10.8351 6.8827 10.6499 6.80606 10.5134 6.66963C10.3768 6.5332 10.3001 6.34816 10.3001 6.15521V1.95195C10.2981 1.8549 10.3154 1.75843 10.351 1.66813C10.3867 1.57783 10.4399 1.4955 10.5077 1.42593C10.5754 1.35636 10.6563 1.30094 10.7457 1.26289C10.8351 1.22483 10.9311 1.2049 11.0283 1.20425H15.2353ZM15.2353 0.193848H11.0283C10.5616 0.193848 10.114 0.379075 9.78399 0.708783C9.45398 1.03849 9.26859 1.48567 9.26859 1.95195V6.15521C9.26859 6.62196 9.45382 7.06966 9.78368 7.40017C10.1135 7.73068 10.5611 7.91703 11.0283 7.91836H15.2353C15.7029 7.91703 16.151 7.73084 16.4817 7.40048C16.8123 7.07011 16.9987 6.62242 17 6.15521V1.95195C16.9987 1.48521 16.8121 1.03804 16.4813 0.708475C16.1505 0.378912 15.7024 0.193846 15.2353 0.193848ZM5.96669 10.4999C6.06231 10.4999 6.15699 10.5188 6.24533 10.5553C6.33367 10.5919 6.41394 10.6455 6.48156 10.713C6.54917 10.7806 6.60281 10.8608 6.6394 10.949C6.67599 11.0373 6.69482 11.1319 6.69482 11.2274V15.4307C6.6955 15.5264 6.67712 15.6213 6.64077 15.7099C6.60441 15.7985 6.5508 15.8789 6.48306 15.9466C6.41531 16.0143 6.33477 16.0679 6.24613 16.1042C6.15748 16.1405 6.06249 16.1589 5.96669 16.1582H1.75967C1.66236 16.1609 1.56549 16.1441 1.47481 16.1087C1.38412 16.0734 1.30144 16.0202 1.23167 15.9524C1.1619 15.8846 1.10645 15.8034 1.0686 15.7138C1.03075 15.6242 1.01127 15.528 1.0113 15.4307V11.2274C1.01195 11.1304 1.0319 11.0344 1.06999 10.9451C1.10808 10.8558 1.16355 10.775 1.23318 10.7073C1.30281 10.6396 1.38521 10.5864 1.4756 10.5508C1.56598 10.5152 1.66254 10.4979 1.75967 10.4999H5.96669ZM5.96669 9.48954H1.75967C1.29646 9.48951 0.851918 9.67196 0.522491 9.99731C0.193065 10.3227 0.00532424 10.7647 0 11.2274L0 15.4307C-1.9177e-06 15.8974 0.185229 16.3451 0.515086 16.6756C0.844943 17.0062 1.29251 17.1925 1.75967 17.1938H5.96669C6.43431 17.1925 6.8824 17.0063 7.21306 16.676C7.54372 16.3456 7.73008 15.8979 7.73141 15.4307V11.2274C7.73007 10.7607 7.54356 10.3135 7.21275 9.98396C6.88195 9.6544 6.43385 9.46933 5.96669 9.46933V9.48954ZM16.823 12.6672L16.2567 12.5409C16.2056 12.3907 16.1448 12.2438 16.0747 12.1014L16.3882 11.5962C16.4157 11.5534 16.4277 11.5025 16.4222 11.4519C16.4167 11.4014 16.3939 11.3542 16.3578 11.3184L15.478 10.4393C15.4421 10.4032 15.3949 10.3805 15.3443 10.375C15.2937 10.3695 15.2427 10.3815 15.1999 10.409L14.6942 10.7222C14.5517 10.6521 14.4047 10.5914 14.2543 10.5404L14.1582 9.99474C14.148 9.94565 14.1214 9.90147 14.0829 9.86937C14.0443 9.83727 13.996 9.81914 13.9459 9.81792H12.6868C12.6357 9.818 12.5863 9.83561 12.5467 9.86781C12.5071 9.9 12.4798 9.94482 12.4694 9.99474L12.348 10.5606C12.1959 10.6116 12.0473 10.6723 11.903 10.7424L11.3974 10.4292C11.3546 10.4017 11.3036 10.3897 11.253 10.3952C11.2023 10.4007 11.1552 10.4234 11.1193 10.4595L10.2394 11.3386C10.2033 11.3744 10.1806 11.4216 10.1751 11.4721C10.1696 11.5227 10.1816 11.5736 10.2091 11.6164L10.5226 12.1216C10.4525 12.264 10.3917 12.4109 10.3406 12.5612L9.77424 12.6875C9.72511 12.6977 9.68089 12.7242 9.64877 12.7628C9.61664 12.8013 9.59849 12.8495 9.59726 12.8996V14.1525C9.59849 14.2027 9.61664 14.2509 9.64877 14.2894C9.68089 14.3279 9.72511 14.3545 9.77424 14.3647L10.3406 14.486C10.3916 14.6379 10.4524 14.7864 10.5226 14.9305L10.2091 15.4357C10.1816 15.4785 10.1696 15.5295 10.1751 15.58C10.1806 15.6306 10.2033 15.6778 10.2394 15.7136L11.1243 16.5522C11.1602 16.5883 11.2074 16.611 11.258 16.6165C11.3086 16.622 11.3596 16.6101 11.4024 16.5826L11.9081 16.2693C12.0524 16.3394 12.201 16.4002 12.3531 16.4512L12.4744 17.017C12.4849 17.0669 12.5122 17.1118 12.5518 17.144C12.5913 17.1762 12.6408 17.1938 12.6919 17.1938H13.9408C13.9919 17.1938 14.0413 17.1762 14.0809 17.144C14.1205 17.1118 14.1478 17.0669 14.1582 17.017L14.2847 16.4512C14.4351 16.4002 14.582 16.3394 14.7246 16.2693L15.2302 16.5826C15.2731 16.6101 15.324 16.622 15.3746 16.6165C15.4253 16.611 15.4724 16.5883 15.5083 16.5522L16.3882 15.6732C16.4243 15.6373 16.447 15.5902 16.4525 15.5396C16.458 15.4891 16.446 15.4381 16.4185 15.3953L16.105 14.8901C16.1752 14.746 16.236 14.5975 16.287 14.4456L16.823 14.3395C16.8722 14.3292 16.9164 14.3027 16.9485 14.2642C16.9806 14.2256 16.9988 14.1774 17 14.1273V12.8794C16.9988 12.8293 16.9806 12.7811 16.9485 12.7425C16.9164 12.704 16.8722 12.6775 16.823 12.6672ZM14.6336 13.5059C14.6336 13.7677 14.5559 14.0236 14.4103 14.2412C14.2647 14.4589 14.0578 14.6286 13.8157 14.7288C13.5736 14.8289 13.3073 14.8551 13.0503 14.8041C12.7933 14.753 12.5572 14.6269 12.372 14.4418C12.1867 14.2567 12.0605 14.0209 12.0094 13.7641C11.9583 13.5074 11.9845 13.2412 12.0848 12.9994C12.1851 12.7575 12.3549 12.5508 12.5727 12.4053C12.7906 12.2599 13.0467 12.1823 13.3087 12.1823C13.6597 12.1836 13.9959 12.3235 14.2441 12.5714C14.4922 12.8193 14.6322 13.1552 14.6336 13.5059Z" fill="#7C7C7C"/>
</g>
<defs>
<clipPath id="clip0_2388_24736">
<rect width="17" height="17" fill="white" transform="translate(0 0.193848)"/>
</clipPath>
</defs>
</svg>
