<svg
                className="relative -right-5 -top-5 w-7 h-6"
                width="32"
                height="34"
                viewBox="0 0 32 34"
                fill="none"
                xmlns="http://www.w3.org/2000/svg"
              >
                <rect
                  x="4.5"
                  y="4.5"
                  width="22.38"
                  height="24.54"
                  rx="11.19"
                  fill="white"
                />
                <rect
                  x="4.5"
                  y="4.5"
                  width="22.38"
                  height="24.54"
                  rx="11.19"
                  stroke="white"
                  strokeWidth="5"
                />
                <path
                  d="M18.6236 14.7973L24.3745 13.2897L21.785 22.8177L21.7842 22.8206L21.7671 22.82H21.75H9.16H9.15184L9.14369 22.8201L7.41392 13.2914L7.41399 13.2914L7.41201 13.2811L7.42563 13.2861L7.44075 13.291L12.7608 15.021L13.6558 15.312L14.0005 14.4362L15.7095 10.0944L17.4486 14.2186L17.7853 15.0171L18.6236 14.7973ZM20.38 1H11C8.34783 1 5.8043 2.05357 3.92893 3.92893C2.05357 5.8043 1 8.34783 1 11V22.54C1 25.1922 2.05357 27.7357 3.92893 29.6111C5.8043 31.4864 8.34783 32.54 11 32.54H20.38C23.0322 32.54 25.5757 31.4864 27.4511 29.6111C29.3264 27.7357 30.38 25.1922 30.38 22.54V11C30.38 8.34783 29.3264 5.8043 27.4511 3.92893C25.5757 2.05357 23.0322 1 20.38 1Z"
                  fill="black"
                  stroke="white"
                  strokeWidth="2"
                />
              </svg>