<svg width="16" height="20" viewBox="0 0 16 20" fill="none" xmlns="http://www.w3.org/2000/svg">
<path d="M8.13192 10.049C10.4409 10.049 12.3127 8.17721 12.3127 5.86825C12.3127 3.55929 10.4409 1.6875 8.13192 1.6875C5.82296 1.6875 3.95117 3.55929 3.95117 5.86825C3.95117 8.17721 5.82296 10.049 8.13192 10.049Z" stroke="#7C7C7C" stroke-width="1.5" stroke-linecap="round" stroke-linejoin="round"/>
<path fill-rule="evenodd" clip-rule="evenodd" d="M1.50001 15.8636C1.4989 15.5697 1.56464 15.2794 1.69225 15.0146C2.09271 14.2137 3.222 13.7892 4.15907 13.597C4.83488 13.4528 5.52003 13.3565 6.20941 13.3087C7.48575 13.1966 8.76946 13.1966 10.0458 13.3087C10.7351 13.357 11.4202 13.4534 12.0961 13.597C13.0332 13.7892 14.1625 14.1737 14.563 15.0146C14.8196 15.5543 14.8196 16.1809 14.563 16.7206C14.1625 17.5616 13.0332 17.946 12.0961 18.1302C11.4211 18.2804 10.7357 18.3795 10.0458 18.4265C9.00696 18.5146 7.96328 18.5307 6.92222 18.4746C6.68195 18.4746 6.44968 18.4746 6.20941 18.4265C5.52207 18.38 4.83929 18.281 4.16708 18.1302C3.222 17.946 2.10071 17.5616 1.69225 16.7206C1.56529 16.4528 1.49962 16.16 1.50001 15.8636Z" stroke="#7C7C7C" stroke-width="1.5" stroke-linecap="round" stroke-linejoin="round"/>
</svg>
