<svg width="101" height="100" viewBox="0 0 101 100" fill="none" xmlns="http://www.w3.org/2000/svg">
<rect x="0.5" width="100" height="100" rx="50" fill="#004AAD"/>
<path d="M65.3955 32.6034C65.1551 32.4083 64.8742 32.2692 64.5734 32.196C64.2725 32.1229 63.9591 32.1176 63.6559 32.1805C61.4293 32.6507 59.1299 32.6591 56.8999 32.2051C54.67 31.751 52.5569 30.8443 50.6913 29.5409C50.3419 29.2969 49.9259 29.166 49.4997 29.166C49.0734 29.166 48.6575 29.2969 48.308 29.5409C46.4428 30.8449 44.3297 31.7519 42.0996 32.206C39.8695 32.66 37.57 32.6513 35.3434 32.1805C35.04 32.117 34.7261 32.1219 34.4249 32.1951C34.1236 32.2682 33.8424 32.4077 33.6018 32.6033C33.3613 32.799 33.1675 33.0458 33.0345 33.3259C32.9014 33.6059 32.8326 33.9121 32.833 34.2222V49.7555C32.8361 52.7396 33.55 55.6801 34.9154 58.3334C36.2809 60.9868 38.2587 63.2768 40.6851 65.0139L48.2893 70.4451C48.6425 70.6973 49.0657 70.8328 49.4997 70.8328C49.9337 70.8328 50.3569 70.6973 50.7101 70.4451L58.3143 65.0139C60.7409 63.277 62.7189 60.9871 64.0844 58.3337C65.4499 55.6802 66.1635 52.7397 66.1663 49.7555V34.2201C66.166 33.9103 66.0967 33.6045 65.9633 33.3248C65.83 33.0452 65.636 32.7987 65.3955 32.6034ZM53.6663 52.0826H51.583V54.1659C51.583 54.7185 51.3635 55.2484 50.9728 55.6391C50.5821 56.0298 50.0522 56.2493 49.4997 56.2493C48.9471 56.2493 48.4172 56.0298 48.0265 55.6391C47.6358 55.2484 47.4163 54.7185 47.4163 54.1659V52.0826H45.333C44.7805 52.0826 44.2506 51.8631 43.8599 51.4724C43.4692 51.0817 43.2497 50.5518 43.2497 49.9993C43.2497 49.4467 43.4692 48.9168 43.8599 48.5261C44.2506 48.1354 44.7805 47.9159 45.333 47.9159H47.4163V45.8326C47.4163 45.2801 47.6358 44.7502 48.0265 44.3595C48.4172 43.9688 48.9471 43.7493 49.4997 43.7493C50.0522 43.7493 50.5821 43.9688 50.9728 44.3595C51.3635 44.7502 51.583 45.2801 51.583 45.8326V47.9159H53.6663C54.2189 47.9159 54.7488 48.1354 55.1395 48.5261C55.5302 48.9168 55.7497 49.4467 55.7497 49.9993C55.7497 50.5518 55.5302 51.0817 55.1395 51.4724C54.7488 51.8631 54.2189 52.0826 53.6663 52.0826Z" fill="white"/>
</svg>
