<svg width="28" height="28" viewBox="0 0 28 28" fill="none" xmlns="http://www.w3.org/2000/svg">
<path d="M25.6673 9.12294C25.6729 9.04916 25.6729 8.97506 25.6673 8.90127L23.334 3.06794C23.2429 2.83736 23.0806 2.6418 22.8709 2.50964C22.6611 2.37748 22.4146 2.31559 22.1673 2.33294H5.83398C5.60033 2.33271 5.37198 2.40265 5.17853 2.5337C4.98508 2.66475 4.83544 2.85086 4.74898 3.06794L2.41565 8.90127C2.41003 8.97506 2.41003 9.04916 2.41565 9.12294C2.37688 9.18788 2.34928 9.25887 2.33398 9.33294C2.34697 10.1394 2.56875 10.9287 2.97769 11.6239C3.38663 12.3191 3.96876 12.8964 4.66732 13.2996V24.4996C4.66732 24.809 4.79023 25.1058 5.00903 25.3246C5.22782 25.5434 5.52457 25.6663 5.83398 25.6663H22.1673C22.4767 25.6663 22.7735 25.5434 22.9923 25.3246C23.2111 25.1058 23.334 24.809 23.334 24.4996V13.3463C24.0393 12.9391 24.6258 12.3544 25.0351 11.6503C25.4444 10.9463 25.6624 10.1473 25.6673 9.33294C25.6782 9.26337 25.6782 9.19251 25.6673 9.12294ZM15.1673 23.3329H12.834V18.6663H15.1673V23.3329ZM21.0007 23.3329H17.5007V17.4996C17.5007 17.1902 17.3777 16.8934 17.1589 16.6746C16.9402 16.4559 16.6434 16.3329 16.334 16.3329H11.6673C11.3579 16.3329 11.0612 16.4559 10.8424 16.6746C10.6236 16.8934 10.5007 17.1902 10.5007 17.4996V23.3329H7.00065V13.9996C7.66503 13.9959 8.32095 13.8503 8.92455 13.5726C9.52814 13.295 10.0655 12.8916 10.5007 12.3896C10.9386 12.8862 11.4772 13.2839 12.0806 13.5563C12.6841 13.8287 13.3386 13.9696 14.0007 13.9696C14.6627 13.9696 15.3172 13.8287 15.9207 13.5563C16.5241 13.2839 17.0627 12.8862 17.5007 12.3896C17.9358 12.8916 18.4732 13.295 19.0768 13.5726C19.6804 13.8503 20.3363 13.9959 21.0007 13.9996V23.3329ZM21.0007 11.6663C20.3818 11.6663 19.7883 11.4204 19.3507 10.9829C18.9132 10.5453 18.6673 9.95178 18.6673 9.33294C18.6673 9.02352 18.5444 8.72677 18.3256 8.50798C18.1068 8.28919 17.8101 8.16627 17.5007 8.16627C17.1912 8.16627 16.8945 8.28919 16.6757 8.50798C16.4569 8.72677 16.334 9.02352 16.334 9.33294C16.334 9.95178 16.0882 10.5453 15.6506 10.9829C15.213 11.4204 14.6195 11.6663 14.0007 11.6663C13.3818 11.6663 12.7883 11.4204 12.3507 10.9829C11.9132 10.5453 11.6673 9.95178 11.6673 9.33294C11.6673 9.02352 11.5444 8.72677 11.3256 8.50798C11.1068 8.28919 10.8101 8.16627 10.5007 8.16627C10.1912 8.16627 9.89449 8.28919 9.67569 8.50798C9.4569 8.72677 9.33398 9.02352 9.33398 9.33294C9.34548 9.63936 9.2965 9.94504 9.18986 10.2325C9.08321 10.52 8.92098 10.7837 8.71244 11.0085C8.50389 11.2333 8.25311 11.4148 7.97442 11.5427C7.69572 11.6706 7.39457 11.7423 7.08815 11.7538C6.46931 11.777 5.8666 11.5534 5.41261 11.1322C5.18781 10.9237 5.00629 10.6729 4.87842 10.3942C4.75054 10.1155 4.67881 9.81436 4.66732 9.50794L6.62732 4.66627H21.374L23.334 9.50794C23.2898 10.096 23.0245 10.6454 22.5917 11.0458C22.1588 11.4463 21.5903 11.6679 21.0007 11.6663Z" fill="#444444"/>
</svg>
