<svg width="50" height="50" viewBox="0 0 50 50" fill="none" xmlns="http://www.w3.org/2000/svg">
<path d="M24.8438 46.4062C13.9453 46.4062 2.1875 39.5703 2.1875 24.5703C2.1875 9.57031 13.9453 2.73438 24.8438 2.73438C30.8984 2.73438 36.4844 4.72656 40.625 8.35938C45.1172 12.3438 47.5 17.9688 47.5 24.5703C47.5 31.1719 45.1172 36.7578 40.625 40.7422C36.4844 44.375 30.8594 46.4062 24.8438 46.4062Z" fill="url(#paint0_radial_2867_32536)"/>
<path d="M17.1875 15.9922C15.5508 15.9922 14.0625 17.375 14.0625 19.6719C14.0625 21.9688 15.5508 23.3477 17.1875 23.3477C18.8281 23.3477 20.3125 21.9648 20.3125 19.6719C20.3125 17.3789 18.8438 15.9922 17.1875 15.9922Z" fill="#422B0D"/>
<path d="M17.0503 17.5274C16.4956 17.2618 15.8276 17.4962 15.5581 18.0509C15.3511 18.4845 15.4448 19.004 15.7925 19.3399C16.3471 19.6056 17.0151 19.3712 17.2846 18.8165C17.4917 18.3829 17.3979 17.8634 17.0503 17.5274Z" fill="#896024"/>
<path d="M32.1875 15.9922C30.5508 15.9922 29.0625 17.375 29.0625 19.6719C29.0625 21.9688 30.5508 23.3477 32.1875 23.3477C33.8242 23.3477 35.3125 21.9648 35.3125 19.6719C35.3125 17.3789 33.8242 15.9922 32.1875 15.9922Z" fill="#422B0D"/>
<path d="M32.0307 17.5274C31.4761 17.2618 30.8081 17.4962 30.5386 18.0509C30.3315 18.4845 30.4253 19.004 30.7729 19.3399C31.3276 19.6056 31.9956 19.3712 32.2651 18.8165C32.4721 18.3829 32.3784 17.8634 32.0307 17.5274Z" fill="#896024"/>
<path d="M24.6094 35.7852C21.0665 35.8125 17.6837 34.3242 15.3126 31.6914C15.1329 31.4844 15.0899 31.1914 15.2032 30.9414C15.3165 30.6875 15.5665 30.5234 15.8438 30.5195C15.9688 30.5195 16.0938 30.5547 16.2032 30.6172C18.086 31.6992 21.2344 33.043 24.6094 33.043H24.6641C28.0352 33.043 31.1876 31.6992 33.0665 30.6172C33.1758 30.5547 33.3008 30.5195 33.4258 30.5195C33.7032 30.5234 33.9532 30.6875 34.0665 30.9414C34.1837 31.1914 34.1407 31.4844 33.9571 31.6914C31.586 34.3242 28.1954 35.8164 24.6524 35.7852" fill="#422B0D"/>
<path d="M43.5508 11.5898C45.6328 14.9492 46.7188 18.9492 46.7188 23.3984C46.7188 30 44.3359 35.5859 39.8438 39.5703C35.7031 43.2031 30.0781 45.2344 24.0625 45.2344C17.0078 45.2344 9.60938 42.3633 5.24219 36.2734C9.44531 43.1719 17.3516 46.4062 24.8438 46.4062C30.8594 46.4062 36.4844 44.375 40.625 40.7422C45.1172 36.7578 47.5 31.1719 47.5 24.5703C47.5 19.5938 46.1445 15.1719 43.5508 11.5898Z" fill="#EB8F00"/>
<defs>
<radialGradient id="paint0_radial_2867_32536" cx="0" cy="0" r="1" gradientUnits="userSpaceOnUse" gradientTransform="translate(24.8437 24.5703) scale(22.2499)">
<stop offset="0.5" stop-color="#FDE030"/>
<stop offset="0.92" stop-color="#F7C02B"/>
<stop offset="1" stop-color="#F4A223"/>
</radialGradient>
</defs>
</svg>
