<svg width="21" height="21" viewBox="0 0 21 21" fill="none" xmlns="http://www.w3.org/2000/svg">
<g clip-path="url(#clip0_2018_25360)">
<path d="M18.7337 10.1325L10.8631 2.26188C10.534 1.93478 10.089 1.75083 9.625 1.75H3.5C2.53312 1.75 1.75 2.53312 1.75 3.5V9.625C1.75 10.1106 1.94687 10.5481 2.26625 10.8631L10.1413 18.7381C10.4563 19.0531 10.8938 19.25 11.375 19.25C11.8562 19.25 12.2981 19.0531 12.6131 18.7381L18.7381 12.6131C19.0531 12.2937 19.25 11.8562 19.25 11.375C19.25 10.8894 19.0531 10.4519 18.7337 10.1325ZM4.8125 6.125C4.08625 6.125 3.5 5.53875 3.5 4.8125C3.5 4.08625 4.08625 3.5 4.8125 3.5C5.53875 3.5 6.125 4.08625 6.125 4.8125C6.125 5.53875 5.53875 6.125 4.8125 6.125Z" fill="#676767"/>
</g>
<defs>
<clipPath id="clip0_2018_25360">
<rect width="21" height="21" fill="white"/>
</clipPath>
</defs>
</svg>
