<svg width="6" height="21" viewBox="0 0 6 21" fill="none" xmlns="http://www.w3.org/2000/svg">
<path d="M3.00688 15.9439C3.558 15.9439 4.08655 16.1629 4.47625 16.5526C4.86595 16.9423 5.08488 17.4708 5.08488 18.0219C5.08488 18.5731 4.86595 19.1016 4.47625 19.4913C4.08655 19.881 3.558 20.0999 3.00688 20.0999C2.45576 20.0999 1.92721 19.881 1.53751 19.4913C1.14781 19.1016 0.928879 18.5731 0.928879 18.0219C0.928879 17.4708 1.14781 16.9423 1.53751 16.5526C1.92721 16.1629 2.45576 15.9439 3.00688 15.9439ZM3.00688 8.42195C3.558 8.42195 4.08655 8.64088 4.47625 9.03058C4.86595 9.42028 5.08488 9.94883 5.08488 10.4999C5.08488 11.0511 4.86595 11.5796 4.47625 11.9693C4.08655 12.359 3.558 12.5779 3.00688 12.5779C2.45576 12.5779 1.92721 12.359 1.53751 11.9693C1.14781 11.5796 0.928879 11.0511 0.928879 10.4999C0.928879 9.94883 1.14781 9.42028 1.53751 9.03058C1.92721 8.64088 2.45576 8.42195 3.00688 8.42195ZM3.00688 0.89995C3.56154 0.89649 4.09488 1.11345 4.48961 1.50312C4.88435 1.8928 5.10818 2.42329 5.11188 2.97795C5.10818 3.53261 4.88435 4.0631 4.48961 4.45277C4.09488 4.84245 3.56154 5.05941 3.00688 5.05595C2.73215 5.05779 2.45975 5.00551 2.20523 4.90208C1.95071 4.79864 1.71906 4.64609 1.5235 4.45313C1.32794 4.26017 1.1723 4.03058 1.06547 3.77746C0.958639 3.52435 0.902711 3.25268 0.900879 2.97795C0.902711 2.70322 0.958639 2.43155 1.06547 2.17843C1.1723 1.92532 1.32794 1.69573 1.5235 1.50277C1.71906 1.30981 1.95071 1.15726 2.20523 1.05382C2.45975 0.950391 2.73215 0.898105 3.00688 0.89995Z" fill="#525863"/>
</svg>
