<svg width="16" height="16" viewBox="0 0 16 16" fill="none" xmlns="http://www.w3.org/2000/svg">
<path d="M8.36932 0.738636C7.17614 0.738636 6.11553 0.901515 5.1875 1.22727C4.26326 1.54924 3.48295 2.02462 2.84659 2.65341C2.21023 3.27841 1.72727 4.04167 1.39773 4.94318C1.06818 5.8447 0.901515 6.875 0.897727 8.03409C0.901515 9.16667 1.07008 10.1875 1.40341 11.0966C1.73674 12.0095 2.22348 12.7898 2.86364 13.4375C3.50379 14.089 4.28598 14.589 5.21023 14.9375C6.13447 15.286 7.18561 15.4602 8.36364 15.4602C9.47348 15.4602 10.4564 15.2917 11.3125 14.9545C12.1723 14.6174 12.8977 14.1477 13.4886 13.5455C14.0833 12.947 14.5322 12.2462 14.8352 11.4432C15.142 10.6439 15.2955 9.77652 15.2955 8.84091C15.2955 8.19318 15.2462 7.57955 15.1477 7C15.0492 6.42424 14.8807 5.91288 14.642 5.46591C14.4072 5.01894 14.0871 4.66288 13.6818 4.39773C13.2765 4.13636 12.7689 3.99432 12.1591 3.97159C11.7765 3.95265 11.4413 3.98864 11.1534 4.07955C10.8655 4.17045 10.6326 4.3125 10.4545 4.50568C10.2803 4.70265 10.1705 4.94318 10.125 5.22727H10.0568C9.9697 5 9.80492 4.79167 9.5625 4.60227C9.32386 4.41667 9.02841 4.27083 8.67614 4.16477C8.32386 4.0625 7.93182 4.02083 7.5 4.03977C7.03788 4.0625 6.60985 4.16856 6.21591 4.35795C5.82576 4.55114 5.48485 4.82008 5.19318 5.16477C4.9053 5.51326 4.68182 5.93371 4.52273 6.42614C4.36364 6.91856 4.28409 7.47727 4.28409 8.10227C4.28409 8.71212 4.37121 9.25 4.54545 9.71591C4.7197 10.1818 4.95265 10.5795 5.24432 10.9091C5.53977 11.2386 5.87311 11.4962 6.24432 11.6818C6.61553 11.8712 6.99811 11.9924 7.39205 12.0455C7.80114 12.1023 8.18561 12.0966 8.54545 12.0284C8.9053 11.9602 9.20455 11.8561 9.44318 11.7159C9.68561 11.5758 9.83712 11.4223 9.89773 11.2557H9.97727V11.892H11.5625V6.48295C11.5663 6.19886 11.6345 5.9697 11.767 5.79545C11.9034 5.62121 12.0928 5.53409 12.3352 5.53409C12.6383 5.53409 12.8826 5.65341 13.0682 5.89205C13.2576 6.13447 13.3939 6.50568 13.4773 7.00568C13.5644 7.50947 13.6061 8.15341 13.6023 8.9375C13.6061 9.58144 13.5208 10.1648 13.3466 10.6875C13.1761 11.214 12.9337 11.6761 12.6193 12.0739C12.3049 12.4716 11.928 12.803 11.4886 13.0682C11.053 13.3371 10.5682 13.5398 10.0341 13.6761C9.5 13.8125 8.92992 13.8807 8.32386 13.8807C7.39583 13.8807 6.57955 13.7386 5.875 13.4545C5.17045 13.1742 4.57955 12.7746 4.10227 12.2557C3.62879 11.7367 3.27083 11.1212 3.02841 10.4091C2.78977 9.70076 2.67045 8.91667 2.67045 8.05682C2.67045 7.13636 2.79545 6.32008 3.04545 5.60795C3.29924 4.89962 3.67045 4.30303 4.15909 3.81818C4.64773 3.33333 5.25189 2.96591 5.97159 2.71591C6.69508 2.46591 7.52652 2.34091 8.46591 2.34091C8.89773 2.34091 9.32008 2.375 9.73295 2.44318C10.1458 2.51136 10.517 2.59091 10.8466 2.68182C11.1761 2.77273 11.4299 2.85227 11.608 2.92045L12.0909 1.47727C11.8561 1.35606 11.5379 1.23864 11.1364 1.125C10.7386 1.01136 10.2992 0.91856 9.81818 0.846591C9.34091 0.774621 8.85795 0.738636 8.36932 0.738636ZM7.97159 5.67045C8.45265 5.67045 8.83712 5.76326 9.125 5.94886C9.41288 6.13826 9.61932 6.41856 9.74432 6.78977C9.86932 7.16098 9.92992 7.62311 9.92614 8.17614C9.92614 8.69129 9.86174 9.11364 9.73295 9.44318C9.60417 9.77273 9.39773 10.017 9.11364 10.1761C8.82955 10.3352 8.45265 10.4148 7.98295 10.4148C7.55871 10.4148 7.19697 10.3182 6.89773 10.125C6.60227 9.93182 6.375 9.66477 6.21591 9.32386C6.06061 8.98674 5.98295 8.60227 5.98295 8.17045C5.98295 7.73864 6.04545 7.33144 6.17045 6.94886C6.29924 6.57008 6.50758 6.26136 6.79545 6.02273C7.08712 5.78788 7.47917 5.67045 7.97159 5.67045Z" fill="black"/>
</svg>
