<svg width="25" height="25" viewBox="0 0 25 25" fill="none" xmlns="http://www.w3.org/2000/svg">
<g clip-path="url(#clip0_2394_25009)">
<path d="M19.1131 0.5H5.88691C2.9118 0.5 0.5 2.9118 0.5 5.88691V19.1131C0.5 22.0882 2.9118 24.5 5.88691 24.5H19.1131C22.0882 24.5 24.5 22.0882 24.5 19.1131V5.88691C24.5 2.9118 22.0882 0.5 19.1131 0.5Z" fill="url(#paint0_linear_2394_25009)" fill-opacity="0.6"/>
<path d="M8.81333 4.65674H16.2951C16.4614 4.73987 16.7108 4.73987 16.8771 4.823C17.6067 4.94124 18.2888 5.26062 18.8469 5.74524C19.4049 6.22986 19.8167 6.86052 20.0361 7.56633C20.1588 7.97307 20.2423 8.39063 20.2854 8.8133V16.1289C20.1666 17.056 19.8243 17.9404 19.2879 18.7059C18.8277 19.2391 18.2508 19.6589 17.602 19.9329C16.9532 20.2068 16.25 20.3274 15.547 20.2854H9.31212C8.19945 20.3394 7.10544 19.9846 6.23626 19.2878C5.70772 18.8312 5.29061 18.2597 5.01685 17.6171C4.74309 16.9744 4.61992 16.2777 4.65677 15.5802V9.761C4.64304 9.34361 4.67088 8.9259 4.7399 8.51403C4.82385 7.66176 5.17427 6.85762 5.74137 6.2159C6.30848 5.57418 7.06341 5.12751 7.89889 4.93938L8.81333 4.65674ZM6.23626 12.5542V15.7963C6.20082 16.2092 6.25605 16.6248 6.39809 17.0141C6.54014 17.4034 6.76555 17.7569 7.05857 18.0499C7.35158 18.3429 7.70509 18.5683 8.09437 18.7104C8.48364 18.8524 8.89926 18.9076 9.31212 18.8722C11.4735 18.9553 13.6349 18.9553 15.7964 18.8722C17.7084 18.8722 18.7891 17.7083 18.8722 15.7963C18.9553 13.6349 18.9553 11.4735 18.8722 9.31209C18.8938 8.90249 18.8289 8.49294 18.682 8.11C18.535 7.72706 18.3092 7.3793 18.0192 7.08927C17.7292 6.79923 17.3814 6.57341 16.9985 6.42646C16.6155 6.2795 16.206 6.21469 15.7964 6.23623C13.6349 6.1531 11.4735 6.1531 9.31212 6.23623C8.89926 6.20079 8.48364 6.25602 8.09437 6.39806C7.70509 6.54011 7.35158 6.76552 7.05857 7.05853C6.76555 7.35154 6.54014 7.70506 6.39809 8.09434C6.25605 8.48361 6.20082 8.89923 6.23626 9.31209V12.5542Z" fill="white" fill-opacity="0.6"/>
<path d="M8.51416 12.5876C8.51636 11.5079 8.94623 10.4731 9.70967 9.70967C10.4731 8.94623 11.5079 8.51636 12.5876 8.51416C13.6613 8.53543 14.6851 8.97142 15.4444 9.73077C16.2038 10.4901 16.6398 11.5139 16.661 12.5876C16.6588 13.6673 16.229 14.7021 15.4655 15.4655C14.7021 16.229 13.6673 16.6588 12.5876 16.661C11.5139 16.6398 10.4901 16.2038 9.73077 15.4444C8.97142 14.6851 8.53543 13.6613 8.51416 12.5876ZM12.5876 10.0105C12.0827 10.0023 11.5868 10.1451 11.1635 10.4205C10.7403 10.6959 10.4089 11.0914 10.2118 11.5564C10.0148 12.0213 9.96108 12.5345 10.0576 13.0302C10.1541 13.5259 10.3964 13.9815 10.7535 14.3386C11.1106 14.6956 11.5661 14.938 12.0618 15.0345C12.5575 15.131 13.0707 15.0773 13.5357 14.8802C14.0006 14.6832 14.3962 14.3518 14.6716 13.9285C14.947 13.5053 15.0897 13.0094 15.0815 12.5045C15.0815 11.843 14.8188 11.2087 14.3511 10.741C13.8834 10.2733 13.249 10.0105 12.5876 10.0105Z" fill="white" fill-opacity="0.6"/>
<path d="M15.7467 8.34778C15.742 8.21552 15.7647 8.08373 15.8132 7.9606C15.8616 7.83746 15.935 7.72563 16.0285 7.63205C16.1221 7.53848 16.2339 7.46516 16.3571 7.41667C16.4802 7.36819 16.612 7.34556 16.7443 7.3502C17.0031 7.36771 17.2468 7.47843 17.4302 7.66186C17.6136 7.84528 17.7243 8.08897 17.7418 8.34778C17.7418 8.61235 17.6367 8.86609 17.4497 9.05317C17.2626 9.24025 17.0088 9.34535 16.7443 9.34535C16.4797 9.34535 16.226 9.24025 16.0389 9.05317C15.8518 8.86609 15.7467 8.61235 15.7467 8.34778Z" fill="white" fill-opacity="0.6"/>
</g>
<defs>
<linearGradient id="paint0_linear_2394_25009" x1="-1.02962" y1="25.8301" x2="27.235" y2="-2.01888" gradientUnits="userSpaceOnUse">
<stop stop-color="#FED576"/>
<stop offset="0.26" stop-color="#F47133"/>
<stop offset="0.61" stop-color="#BC3081"/>
<stop offset="1" stop-color="#4C63D2"/>
</linearGradient>
<clipPath id="clip0_2394_25009">
<rect width="24" height="24" fill="white" transform="translate(0.5 0.5)"/>
</clipPath>
</defs>
</svg>
