<svg width="17" height="17" viewBox="0 0 17 17" fill="none" xmlns="http://www.w3.org/2000/svg">
<g clip-path="url(#clip0_2394_24896)">
<path d="M5.96669 1.0104C6.1598 1.0104 6.34501 1.08705 6.48156 1.22348C6.61811 1.35991 6.69482 1.54495 6.69482 1.73789V5.96137C6.6955 6.05709 6.67712 6.15199 6.64077 6.24056C6.60441 6.32912 6.5508 6.40959 6.48306 6.47728C6.41531 6.54496 6.33477 6.59853 6.24613 6.63485C6.15748 6.67117 6.06249 6.68953 5.96669 6.68886H1.75967C1.66236 6.69156 1.56549 6.67474 1.47481 6.63939C1.38412 6.60404 1.30144 6.55088 1.23167 6.48306C1.1619 6.41523 1.10645 6.33412 1.0686 6.24451C1.03075 6.15491 1.01127 6.05863 1.0113 5.96137V1.7581C1.00924 1.65934 1.02718 1.56119 1.06406 1.46954C1.10093 1.37789 1.15598 1.29464 1.22589 1.2248C1.2958 1.15495 1.37912 1.09995 1.47085 1.06311C1.56258 1.02626 1.66082 1.00834 1.75967 1.0104H5.96669ZM5.96669 0H1.75967C1.29297 0 0.845396 0.185228 0.515395 0.514935C0.185393 0.844642 0 1.29182 0 1.7581L0 5.96137C-1.9177e-06 6.42811 0.185229 6.87581 0.515086 7.20632C0.844943 7.53683 1.29251 7.72318 1.75967 7.72452H5.96669C6.43431 7.72318 6.8824 7.537 7.21306 7.20663C7.54372 6.87626 7.73008 6.42857 7.73141 5.96137V1.7581C7.73007 1.29136 7.54356 0.84419 7.21275 0.514627C6.88195 0.185064 6.43385 -1.91599e-06 5.96669 0ZM15.2353 1.0104C15.4284 1.0104 15.6136 1.08705 15.7501 1.22348C15.8867 1.35991 15.9634 1.54495 15.9634 1.73789V5.96137C15.9641 6.05709 15.9457 6.15199 15.9094 6.24056C15.873 6.32912 15.8194 6.40959 15.7516 6.47728C15.6839 6.54496 15.6034 6.59853 15.5147 6.63485C15.4261 6.67117 15.3311 6.68953 15.2353 6.68886H11.0283C10.8351 6.68886 10.6499 6.61221 10.5134 6.47578C10.3768 6.33935 10.3001 6.15431 10.3001 5.96137V1.7581C10.2981 1.66106 10.3154 1.56458 10.351 1.47428C10.3867 1.38398 10.4399 1.30165 10.5077 1.23208C10.5754 1.16252 10.6563 1.10709 10.7457 1.06904C10.8351 1.03098 10.9311 1.01105 11.0283 1.0104H15.2353ZM15.2353 0H11.0283C10.5616 0 10.114 0.185228 9.78399 0.514935C9.45398 0.844642 9.26859 1.29182 9.26859 1.7581V5.96137C9.26859 6.42811 9.45382 6.87581 9.78368 7.20632C10.1135 7.53683 10.5611 7.72318 11.0283 7.72452H15.2353C15.7029 7.72318 16.151 7.537 16.4817 7.20663C16.8123 6.87626 16.9987 6.42857 17 5.96137V1.7581C16.9987 1.29136 16.8121 0.84419 16.4813 0.514627C16.1505 0.185064 15.7024 -1.91599e-06 15.2353 0ZM5.96669 10.3061C6.06231 10.3061 6.15699 10.3249 6.24533 10.3615C6.33367 10.398 6.41394 10.4516 6.48156 10.5192C6.54917 10.5867 6.60281 10.6669 6.6394 10.7552C6.67599 10.8434 6.69482 10.938 6.69482 11.0336V15.2368C6.6955 15.3326 6.67712 15.4275 6.64077 15.516C6.60441 15.6046 6.5508 15.6851 6.48306 15.7528C6.41531 15.8204 6.33477 15.874 6.24613 15.9103C6.15748 15.9467 6.06249 15.965 5.96669 15.9643H1.75967C1.66236 15.967 1.56549 15.9502 1.47481 15.9149C1.38412 15.8795 1.30144 15.8264 1.23167 15.7585C1.1619 15.6907 1.10645 15.6096 1.0686 15.52C1.03075 15.4304 1.01127 15.3341 1.0113 15.2368V11.0336C1.01195 10.9365 1.0319 10.8406 1.06999 10.7513C1.10808 10.662 1.16355 10.5811 1.23318 10.5134C1.30281 10.4458 1.38521 10.3926 1.4756 10.357C1.56598 10.3214 1.66254 10.3041 1.75967 10.3061H5.96669ZM5.96669 9.29569H1.75967C1.29646 9.29566 0.851918 9.47811 0.522491 9.80346C0.193065 10.1288 0.00532424 10.5708 0 11.0336L0 15.2368C-1.9177e-06 15.7036 0.185229 16.1513 0.515086 16.4818C0.844943 16.8123 1.29251 16.9987 1.75967 17H5.96669C6.43431 16.9987 6.8824 16.8125 7.21306 16.4821C7.54372 16.1517 7.73008 15.7041 7.73141 15.2368V11.0336C7.73007 10.5668 7.54356 10.1197 7.21275 9.79011C6.88195 9.46055 6.43385 9.27548 5.96669 9.27548V9.29569ZM16.823 12.4734L16.2567 12.3471C16.2056 12.1968 16.1448 12.05 16.0747 11.9076L16.3882 11.4024C16.4157 11.3596 16.4277 11.3087 16.4222 11.2581C16.4167 11.2075 16.3939 11.1604 16.3578 11.1245L15.478 10.2455C15.4421 10.2094 15.3949 10.1867 15.3443 10.1812C15.2937 10.1757 15.2427 10.1877 15.1999 10.2152L14.6942 10.5284C14.5517 10.4583 14.4047 10.3975 14.2543 10.3465L14.1582 9.80089C14.148 9.75181 14.1214 9.70763 14.0829 9.67553C14.0443 9.64343 13.996 9.62529 13.9459 9.62407H12.6868C12.6357 9.62415 12.5863 9.64177 12.5467 9.67396C12.5071 9.70615 12.4798 9.75097 12.4694 9.80089L12.348 10.3667C12.1959 10.4177 12.0473 10.4785 11.903 10.5486L11.3974 10.2354C11.3546 10.2079 11.3036 10.1959 11.253 10.2014C11.2023 10.2069 11.1552 10.2296 11.1193 10.2657L10.2394 11.1447C10.2033 11.1806 10.1806 11.2277 10.1751 11.2783C10.1696 11.3289 10.1816 11.3798 10.2091 11.4226L10.5226 11.9278C10.4525 12.0702 10.3917 12.217 10.3406 12.3673L9.77424 12.4936C9.72511 12.5039 9.68089 12.5304 9.64877 12.5689C9.61664 12.6074 9.59849 12.6557 9.59726 12.7058V13.9587C9.59849 14.0088 9.61664 14.0571 9.64877 14.0956C9.68089 14.1341 9.72511 14.1606 9.77424 14.1709L10.3406 14.2921C10.3916 14.4441 10.4524 14.5926 10.5226 14.7367L10.2091 15.2419C10.1816 15.2847 10.1696 15.3356 10.1751 15.3862C10.1806 15.4368 10.2033 15.4839 10.2394 15.5198L11.1243 16.3584C11.1602 16.3945 11.2074 16.4172 11.258 16.4227C11.3086 16.4282 11.3596 16.4162 11.4024 16.3887L11.9081 16.0755C12.0524 16.1456 12.201 16.2063 12.3531 16.2574L12.4744 16.8232C12.4849 16.8731 12.5122 16.9179 12.5518 16.9501C12.5913 16.9823 12.6408 16.9999 12.6919 17H13.9408C13.9919 16.9999 14.0413 16.9823 14.0809 16.9501C14.1205 16.9179 14.1478 16.8731 14.1582 16.8232L14.2847 16.2574C14.4351 16.2063 14.582 16.1456 14.7246 16.0755L15.2302 16.3887C15.2731 16.4162 15.324 16.4282 15.3746 16.4227C15.4253 16.4172 15.4724 16.3945 15.5083 16.3584L16.3882 15.4793C16.4243 15.4435 16.447 15.3963 16.4525 15.3458C16.458 15.2952 16.446 15.2443 16.4185 15.2015L16.105 14.6963C16.1752 14.5521 16.236 14.4037 16.287 14.2517L16.823 14.1456C16.8722 14.1354 16.9164 14.1088 16.9485 14.0703C16.9806 14.0318 16.9988 13.9836 17 13.9334V12.6856C16.9988 12.6355 16.9806 12.5872 16.9485 12.5487C16.9164 12.5102 16.8722 12.4836 16.823 12.4734ZM14.6336 13.312C14.6336 13.5738 14.5559 13.8297 14.4103 14.0474C14.2647 14.2651 14.0578 14.4347 13.8157 14.5349C13.5736 14.6351 13.3073 14.6613 13.0503 14.6102C12.7933 14.5592 12.5572 14.4331 12.372 14.248C12.1867 14.0629 12.0605 13.827 12.0094 13.5703C11.9583 13.3135 11.9845 13.0474 12.0848 12.8055C12.1851 12.5636 12.3549 12.3569 12.5727 12.2115C12.7906 12.066 13.0467 11.9884 13.3087 11.9884C13.6597 11.9897 13.9959 12.1296 14.2441 12.3776C14.4922 12.6255 14.6322 12.9614 14.6336 13.312Z" fill="#7C7C7C" fill-opacity="0.6"/>
</g>
<defs>
<clipPath id="clip0_2394_24896">
<rect width="17" height="17" fill="white"/>
</clipPath>
</defs>
</svg>
