<svg
              width="55"
              height="50"
              viewBox="0 0 55 50"
              fill="none"
              xmlns="http://www.w3.org/2000/svg"
            >
              <path
                d="M54.381 42.97C56.1435 46.0944 53.9311 50 50.4109 50H4.58852C1.06155 50 -1.14055 46.0884 0.618491 42.97L23.53 2.34229C25.2933 -0.783593 29.7099 -0.777929 31.47 2.34229L54.381 42.97ZM27.5 34.5703C25.0742 34.5703 23.1077 36.5815 23.1077 39.0625C23.1077 41.5435 25.0742 43.5547 27.5 43.5547C29.9258 43.5547 31.8924 41.5435 31.8924 39.0625C31.8924 36.5815 29.9258 34.5703 27.5 34.5703ZM23.3299 18.4232L24.0382 31.7045C24.0713 32.326 24.5737 32.8125 25.1823 32.8125H29.8178C30.4263 32.8125 30.9287 32.326 30.9619 31.7045L31.6702 18.4232C31.706 17.752 31.1834 17.1875 30.5261 17.1875H24.4739C23.8165 17.1875 23.294 17.752 23.3299 18.4232Z"
                fill="#DBBD1D"
                fill-opacity="0.79"
              />
            </svg>