<svg
            width="28"
            height="28"
            viewBox="0 0 28 28"
            fill="none"
            xmlns="http://www.w3.org/2000/svg"
          >
            <path
              d="M14 21.5C18.1421 21.5 21.5 18.1421 21.5 14C21.5 9.85786 18.1421 6.5 14 6.5C9.85786 6.5 6.5 9.85786 6.5 14C6.5 18.1421 9.85786 21.5 14 21.5Z"
              stroke="#454545"
              stroke-width="2"
              stroke-linecap="round"
              stroke-linejoin="round"
            />
            <path
              d="M17.2466 15.875C16.9171 16.4449 16.4435 16.918 15.8734 17.247C15.3032 17.5759 14.6566 17.7491 13.9983 17.7491C13.3401 17.7491 12.6934 17.5759 12.1232 17.247C11.5531 16.9181 11.0795 16.4449 10.75 15.8751"
              stroke="#454545"
              stroke-width="2"
              stroke-linecap="round"
              stroke-linejoin="round"
            />
            <path
              d="M11.1875 13.375C11.7053 13.375 12.125 12.9553 12.125 12.4375C12.125 11.9197 11.7053 11.5 11.1875 11.5C10.6697 11.5 10.25 11.9197 10.25 12.4375C10.25 12.9553 10.6697 13.375 11.1875 13.375Z"
              fill="#454545"
            />
            <path
              d="M16.8125 13.375C17.3303 13.375 17.75 12.9553 17.75 12.4375C17.75 11.9197 17.3303 11.5 16.8125 11.5C16.2947 11.5 15.875 11.9197 15.875 12.4375C15.875 12.9553 16.2947 13.375 16.8125 13.375Z"
              fill="#454545"
            />
          </svg>