<svg
                className="mr-2"
                width="20"
                height="20"
                viewBox="0 0 20 20"
                fill="none"
                xmlns="http://www.w3.org/2000/svg"
              >
                <path
                  d="M15.8327 17.3334H4.16602C3.76819 17.3334 3.38666 17.1754 3.10536 16.8941C2.82405 16.6128 2.66602 16.2312 2.66602 15.8334V14.0001C2.66602 13.8233 2.73625 13.6537 2.86128 13.5287C2.9863 13.4037 3.15587 13.3334 3.33268 13.3334C3.50949 13.3334 3.67906 13.4037 3.80409 13.5287C3.92911 13.6537 3.99935 13.8233 3.99935 14.0001V15.8334C3.99935 15.8776 4.01691 15.92 4.04816 15.9513C4.07942 15.9825 4.12181 16.0001 4.16602 16.0001H15.8327C15.8769 16.0001 15.9193 15.9825 15.9505 15.9513C15.9818 15.92 15.9993 15.8776 15.9993 15.8334V14.0001C15.9993 13.8233 16.0696 13.6537 16.1946 13.5287C16.3196 13.4037 16.4892 13.3334 16.666 13.3334C16.8428 13.3334 17.0124 13.4037 17.1374 13.5287C17.2624 13.6537 17.3327 13.8233 17.3327 14.0001V15.8334C17.3327 16.2312 17.1746 16.6128 16.8933 16.8941C16.612 17.1754 16.2305 17.3334 15.8327 17.3334ZM14.666 4.00008H5.33268C5.15587 4.00008 4.9863 3.92984 4.86128 3.80482C4.73625 3.67979 4.66602 3.51023 4.66602 3.33341C4.66602 3.1566 4.73625 2.98703 4.86128 2.86201C4.9863 2.73699 5.15587 2.66675 5.33268 2.66675H14.666C14.8428 2.66675 15.0124 2.73699 15.1374 2.86201C15.2624 2.98703 15.3327 3.1566 15.3327 3.33341C15.3327 3.51023 15.2624 3.67979 15.1374 3.80482C15.0124 3.92984 14.8428 4.00008 14.666 4.00008Z"
                  fill="white"
                />
                <path
                  d="M13.2801 9.58676C13.2301 9.70851 13.1451 9.81272 13.036 9.88628C12.9269 9.95984 12.7984 9.99944 12.6668 10.0001H10.6668V12.6668C10.6668 12.8436 10.5965 13.0131 10.4715 13.1382C10.3465 13.2632 10.1769 13.3334 10.0001 13.3334C9.82328 13.3334 9.65371 13.2632 9.52869 13.1382C9.40366 13.0131 9.33343 12.8436 9.33343 12.6668V10.0001H7.33343C7.20181 9.99944 7.07333 9.95984 6.96419 9.88628C6.85504 9.81272 6.77011 9.70851 6.72009 9.58676C6.66904 9.46535 6.65509 9.33154 6.68001 9.20222C6.70492 9.07289 6.76759 8.95384 6.86009 8.86009L9.52676 6.19343C9.59016 6.13273 9.66493 6.08516 9.74676 6.05343C9.90907 5.98675 10.0911 5.98675 10.2534 6.05343C10.3353 6.08516 10.41 6.13273 10.4734 6.19343L13.1401 8.86009C13.2326 8.95384 13.2953 9.07289 13.3202 9.20222C13.3451 9.33154 13.3311 9.46535 13.2801 9.58676Z"
                  fill="white"
                />
              </svg>