<svg width="50" height="50" viewBox="0 0 50 50" fill="none" xmlns="http://www.w3.org/2000/svg">
<path d="M24.8438 46.4062C13.9453 46.4062 2.1875 39.5703 2.1875 24.5703C2.1875 9.57031 13.9453 2.73438 24.8438 2.73438C30.8984 2.73438 36.4844 4.72656 40.625 8.35938C45.1172 12.3438 47.5 17.9688 47.5 24.5703C47.5 31.1719 45.1172 36.7578 40.625 40.7422C36.4844 44.375 30.8594 46.4062 24.8438 46.4062Z" fill="url(#paint0_radial_2867_32561)"/>
<path d="M43.5508 11.5898C45.6328 14.9492 46.7188 18.9492 46.7188 23.3984C46.7188 30 44.3359 35.5859 39.8438 39.5703C35.7031 43.2031 30.0781 45.2344 24.0625 45.2344C17.0078 45.2344 9.60938 42.3633 5.24219 36.2734C9.44531 43.1719 17.3516 46.4062 24.8438 46.4062C30.8594 46.4062 36.4844 44.375 40.625 40.7422C45.1172 36.7578 47.5 31.1719 47.5 24.5703C47.5 19.5938 46.1445 15.1719 43.5508 11.5898Z" fill="#EB8F00"/>
<path d="M34.7656 34.375H15.2344C14.3711 34.375 13.6719 33.6758 13.6719 32.8125C13.6719 31.9492 14.3711 31.25 15.2344 31.25H34.7656C35.6289 31.25 36.3281 31.9492 36.3281 32.8125C36.3281 33.6758 35.6289 34.375 34.7656 34.375Z" fill="#422B0D"/>
<path d="M17.4492 17.9453C15.8125 17.9453 14.3242 19.3281 14.3242 21.625C14.3242 23.9219 15.8125 25.3008 17.4492 25.3008C19.0859 25.3008 20.5742 23.918 20.5742 21.625C20.5742 19.332 19.0859 17.9453 17.4492 17.9453Z" fill="#422B0D"/>
<path d="M17.2964 19.4806C16.7417 19.2149 16.0737 19.4493 15.8042 20.004C15.5971 20.4376 15.6909 20.9571 16.0386 21.2931C16.5932 21.5587 17.2612 21.3243 17.5307 20.7696C17.7378 20.336 17.644 19.8165 17.2964 19.4806Z" fill="#896024"/>
<path d="M32.4219 17.9453C30.7852 17.9453 29.2969 19.3281 29.2969 21.625C29.2969 23.9219 30.7852 25.3008 32.4219 25.3008C34.0586 25.3008 35.5469 23.918 35.5469 21.625C35.5469 19.332 34.0664 17.9453 32.4219 17.9453Z" fill="#422B0D"/>
<path d="M32.2768 19.4806C31.7221 19.2149 31.0542 19.4493 30.7846 20.004C30.5776 20.4376 30.6714 20.9571 31.019 21.2931C31.5737 21.5587 32.2417 21.3243 32.5112 20.7696C32.7182 20.336 32.6245 19.8165 32.2768 19.4806Z" fill="#896024"/>
<defs>
<radialGradient id="paint0_radial_2867_32561" cx="0" cy="0" r="1" gradientUnits="userSpaceOnUse" gradientTransform="translate(24.8437 24.5703) scale(22.2499)">
<stop offset="0.5" stop-color="#FDE030"/>
<stop offset="0.92" stop-color="#F7C02B"/>
<stop offset="1" stop-color="#F4A223"/>
</radialGradient>
</defs>
</svg>
