<svg width="21" height="21" viewBox="0 0 21 21" fill="none" xmlns="http://www.w3.org/2000/svg">
<path d="M10.5 1.96875C5.78829 1.96875 1.96875 5.78833 1.96875 10.5C1.96875 15.2117 5.78829 19.0312 10.5 19.0312C15.2117 19.0312 19.0312 15.2117 19.0312 10.5C19.0312 5.78833 15.2117 1.96875 10.5 1.96875ZM9.61615 17.7597C7.99751 17.5659 6.49987 16.8413 5.32924 15.6707C3.94808 14.2896 3.18749 12.4532 3.18749 10.5C3.18749 8.74166 3.8042 7.07831 4.93479 5.75617C4.96392 6.1055 5.03582 6.48002 5.0174 6.74773C4.95013 7.72369 4.85383 8.3345 5.4251 9.15789C5.64765 9.47859 5.70232 9.93833 5.81064 10.3095C5.91659 10.6727 6.33983 10.8632 6.63173 11.0869C7.22068 11.5384 7.78411 12.0633 8.40861 12.4607C8.82078 12.723 9.07823 12.8534 8.95753 13.3564C8.86044 13.7609 8.83333 14.0101 8.62407 14.3704C8.56021 14.4804 8.86512 15.1874 8.96659 15.2889C9.27413 15.5964 9.57928 15.8785 9.9145 16.1553C10.4342 16.5847 9.86401 17.1426 9.61615 17.7597ZM15.6707 15.6707C14.6194 16.7221 13.3042 17.4133 11.8745 17.6838C12.0771 17.1828 12.4379 16.7376 12.7725 16.4795C13.0636 16.2549 13.4282 15.8229 13.5802 15.4807C13.7322 15.1389 13.9334 14.8427 14.1371 14.5284C14.4269 14.0814 13.4227 13.4072 13.0972 13.2659C12.3649 12.948 11.8137 12.519 11.1629 12.0611C10.6992 11.7349 9.75782 12.2315 9.23434 12.003C8.51735 11.6899 7.92664 11.1459 7.30341 10.6766C6.66028 10.1922 6.69137 9.62756 6.69137 8.91302C7.19513 8.9316 7.91175 8.77361 8.24619 9.17872C8.35172 9.30657 8.71459 9.87771 8.95748 9.67477C9.15592 9.50894 8.81044 8.84424 8.74371 8.68797C8.53843 8.20747 9.21145 8.02007 9.55594 7.69424C10.0055 7.26916 10.9698 6.60249 10.8935 6.29779C10.8173 5.99308 9.92869 5.12978 9.40677 5.26448C9.32855 5.28466 8.6399 6.00674 8.50685 6.12002C8.51037 5.88435 8.5139 5.64871 8.51751 5.41304C8.51977 5.26423 8.23992 5.11149 8.25292 5.01551C8.28573 4.77295 8.96093 4.33273 9.12889 4.13954C9.01121 4.066 8.60967 3.7211 8.48814 3.77171C8.1939 3.89435 7.86159 3.97884 7.56734 4.10144C7.56734 3.99939 7.55496 3.90354 7.54019 3.80887C8.13274 3.54674 8.75779 3.36531 9.39861 3.26944L9.97627 3.50159L10.3841 3.98561L10.7912 4.40532L11.147 4.51996L11.7121 3.98696L11.5664 3.60646V3.26443C12.6841 3.42677 13.7396 3.84374 14.664 4.4867C14.4986 4.50151 14.3169 4.52583 14.1118 4.55191C14.0271 4.50188 13.9185 4.47915 13.8262 4.44433C14.094 5.02027 14.3734 5.58826 14.6573 6.15657C14.9605 6.76364 15.6332 7.4148 15.7513 8.05563C15.8905 8.81098 15.7939 9.49709 15.8701 10.3858C15.9434 11.2416 16.8349 12.2139 16.8349 12.2139C16.8349 12.2139 17.2466 12.3542 17.589 12.3053C17.2698 13.5679 16.6156 14.7258 15.6707 15.6707Z" fill="#676767"/>
</svg>
