<svg width="29" height="29" viewBox="0 0 29 29" fill="none" xmlns="http://www.w3.org/2000/svg">
<g clip-path="url(#clip0_2388_24834)">
<path d="M22.39 0H6.48C2.90119 0 0 2.90119 0 6.48V22.39C0 25.9688 2.90119 28.87 6.48 28.87H22.39C25.9688 28.87 28.87 25.9688 28.87 22.39V6.48C28.87 2.90119 25.9688 0 22.39 0Z" fill="url(#paint0_linear_2388_24834)"/>
<path d="M9.99986 5H18.9999C19.1999 5.1 19.4999 5.1 19.6999 5.2C20.5775 5.34223 21.3981 5.72642 22.0693 6.30938C22.7406 6.89234 23.236 7.65096 23.4999 8.5C23.6475 8.98927 23.748 9.49157 23.7999 10V18.8C23.6569 19.9153 23.2451 20.9791 22.5999 21.9C22.0463 22.5413 21.3524 23.0464 20.5719 23.3759C19.7915 23.7054 18.9455 23.8506 18.0999 23.8H10.5999C9.26141 23.865 7.94541 23.4382 6.89986 22.6C6.26406 22.0507 5.76232 21.3632 5.43301 20.5902C5.10369 19.8172 4.95554 18.9791 4.99986 18.14V11.14C4.98334 10.6379 5.01684 10.1354 5.09986 9.64C5.20084 8.61479 5.62237 7.64748 6.30455 6.87554C6.98673 6.1036 7.89485 5.5663 8.89986 5.34L9.99986 5ZM6.89986 14.5V18.4C6.85722 18.8966 6.92366 19.3966 7.09453 19.8649C7.26539 20.3331 7.53655 20.7584 7.88902 21.1108C8.24149 21.4633 8.66674 21.7345 9.13501 21.9053C9.60327 22.0762 10.1032 22.1426 10.5999 22.1C13.1999 22.2 15.7999 22.2 18.3999 22.1C20.6999 22.1 21.9999 20.7 22.0999 18.4C22.1999 15.8 22.1999 13.2 22.0999 10.6C22.1258 10.1073 22.0478 9.61462 21.871 9.15398C21.6943 8.69334 21.4226 8.27501 21.0737 7.92613C20.7249 7.57724 20.3065 7.3056 19.8459 7.12883C19.3852 6.95205 18.8926 6.87409 18.3999 6.9C15.7999 6.8 13.1999 6.8 10.5999 6.9C10.1032 6.85736 9.60327 6.9238 9.13501 7.09467C8.66674 7.26553 8.24149 7.53669 7.88902 7.88916C7.53655 8.24163 7.26539 8.66688 7.09453 9.13515C6.92366 9.60341 6.85722 10.1034 6.89986 10.6V14.5Z" fill="white"/>
<path d="M9.63965 14.5401C9.64229 13.2414 10.1594 11.9966 11.0777 11.0782C11.9961 10.1599 13.2409 9.64278 14.5396 9.64014C15.8312 9.66572 17.0627 10.1902 17.9762 11.1036C18.8896 12.0171 19.4141 13.2486 19.4396 14.5401C19.437 15.8389 18.9199 17.0837 18.0016 18.002C17.0832 18.9204 15.8384 19.4375 14.5396 19.4401C13.2481 19.4146 12.0166 18.8901 11.1031 17.9767C10.1897 17.0632 9.66523 15.8317 9.63965 14.5401ZM14.5396 11.4401C13.9323 11.4303 13.3358 11.602 12.8266 11.9333C12.3175 12.2646 11.9188 12.7404 11.6818 13.2997C11.4448 13.859 11.3802 14.4763 11.4963 15.0726C11.6123 15.6689 11.9038 16.2169 12.3334 16.6464C12.7629 17.0759 13.3109 17.3674 13.9072 17.4835C14.5035 17.5996 15.1208 17.535 15.6801 17.298C16.2394 17.061 16.7152 16.6623 17.0465 16.1532C17.3778 15.644 17.5495 15.0475 17.5396 14.4401C17.5396 13.6445 17.2236 12.8814 16.661 12.3188C16.0984 11.7562 15.3353 11.4401 14.5396 11.4401Z" fill="white"/>
<path d="M18.3401 9.43997C18.3345 9.28088 18.3617 9.12234 18.42 8.97422C18.4784 8.82611 18.5665 8.69158 18.6791 8.57901C18.7917 8.46645 18.9262 8.37826 19.0743 8.31993C19.2224 8.2616 19.381 8.23439 19.5401 8.23997C19.8514 8.26103 20.1445 8.39422 20.3652 8.61486C20.5858 8.83551 20.719 9.12865 20.7401 9.43997C20.7401 9.75823 20.6136 10.0635 20.3886 10.2885C20.1636 10.5135 19.8583 10.64 19.5401 10.64C19.2218 10.64 18.9166 10.5135 18.6915 10.2885C18.4665 10.0635 18.3401 9.75823 18.3401 9.43997Z" fill="white"/>
</g>
<defs>
<linearGradient id="paint0_linear_2388_24834" x1="-1.84" y1="30.47" x2="32.16" y2="-3.03" gradientUnits="userSpaceOnUse">
<stop stop-color="#FED576"/>
<stop offset="0.26" stop-color="#F47133"/>
<stop offset="0.61" stop-color="#BC3081"/>
<stop offset="1" stop-color="#4C63D2"/>
</linearGradient>
<clipPath id="clip0_2388_24834">
<rect width="28.87" height="28.87" fill="white"/>
</clipPath>
</defs>
</svg>
