<svg width="24" height="25" viewBox="0 0 24 25" fill="none" xmlns="http://www.w3.org/2000/svg">
<path d="M21.4204 16.08L19.7304 9.32V9.26C19.7321 9.22669 19.7321 9.19331 19.7304 9.16L19.6404 9.02C19.6147 8.99925 19.5912 8.97578 19.5704 8.95L19.4204 8.85H19.3404C19.2366 8.79034 19.1201 8.75607 19.0004 8.75H5.78044C5.38919 8.74974 5.00913 8.88061 4.70098 9.12169C4.39282 9.36278 4.17435 9.70018 4.08044 10.08L2.58044 16.08C2.51669 16.3379 2.51248 16.6069 2.56814 16.8667C2.6238 17.1264 2.73787 17.3701 2.9017 17.5792C3.06553 17.7883 3.27482 17.9574 3.5137 18.0736C3.75258 18.1899 4.01479 18.2502 4.28044 18.25H19.7204C19.9861 18.2502 20.2483 18.1899 20.4872 18.0736C20.7261 17.9574 20.9354 17.7883 21.0992 17.5792C21.263 17.3701 21.3771 17.1264 21.4327 16.8667C21.4884 16.6069 21.4842 16.3379 21.4204 16.08ZM4.08044 16.65C4.06521 16.6171 4.05733 16.5813 4.05733 16.545C4.05733 16.5087 4.06521 16.4729 4.08044 16.44L5.58044 10.44C5.59521 10.387 5.62639 10.3401 5.66952 10.3059C5.71264 10.2718 5.76549 10.2522 5.82044 10.25H18.0004L16.3704 16.75H4.28044C4.2415 16.7508 4.20293 16.7421 4.16809 16.7247C4.13324 16.7073 4.10316 16.6816 4.08044 16.65ZM19.9204 16.65C19.8977 16.6816 19.8676 16.7073 19.8328 16.7247C19.798 16.7421 19.7594 16.7508 19.7204 16.75H18.0004L19.0004 12.59L20.0004 16.44C20.0044 16.4788 19.9993 16.518 19.9854 16.5545C19.9715 16.591 19.9492 16.6237 19.9204 16.65Z" fill="#7C7C7C"/>
<path d="M15 11.75H8C7.80109 11.75 7.61032 11.829 7.46967 11.9697C7.32902 12.1103 7.25 12.3011 7.25 12.5C7.25 12.6989 7.32902 12.8897 7.46967 13.0303C7.61032 13.171 7.80109 13.25 8 13.25H15C15.1989 13.25 15.3897 13.171 15.5303 13.0303C15.671 12.8897 15.75 12.6989 15.75 12.5C15.75 12.3011 15.671 12.1103 15.5303 11.9697C15.3897 11.829 15.1989 11.75 15 11.75ZM14 13.75H7C6.80109 13.75 6.61032 13.829 6.46967 13.9697C6.32902 14.1103 6.25 14.3011 6.25 14.5C6.25 14.6989 6.32902 14.8897 6.46967 15.0303C6.61032 15.171 6.80109 15.25 7 15.25H14C14.1989 15.25 14.3897 15.171 14.5303 15.0303C14.671 14.8897 14.75 14.6989 14.75 14.5C14.75 14.3011 14.671 14.1103 14.5303 13.9697C14.3897 13.829 14.1989 13.75 14 13.75Z" fill="#7C7C7C"/>
</svg>
