<svg width="65" height="73" viewBox="0 0 65 73" fill="none" xmlns="http://www.w3.org/2000/svg">
<path d="M64.0397 20.0295V45.1058C63.9113 47.7314 63.2365 50.3014 62.0586 52.6515C60.8806 55.0016 59.2253 57.0801 57.1986 58.7543L42.6861 69.588C39.7191 71.7143 36.1502 72.8366 32.5003 72.7909C28.8455 72.8348 25.2725 71.7077 22.3044 69.5745L7.79194 58.7408C5.76864 57.0672 4.11626 54.9904 2.94013 52.6428C1.76401 50.2952 1.08995 47.7283 0.960938 45.1058V20.0295C1.06636 17.3258 1.94102 14.7083 3.48221 12.4844C5.02341 10.2605 7.16714 8.52252 9.66169 7.47452L26.5367 1.15314C30.4243 -0.105734 34.6101 -0.105734 38.4977 1.15314L55.3389 7.47452C57.8335 8.52252 59.9772 10.2605 61.5184 12.4844C63.0596 14.7083 63.9343 17.3258 64.0397 20.0295Z" fill="#C7F1D1"/>
<path d="M55.3389 7.47452L38.4808 1.15314C34.5932 -0.105734 30.4074 -0.105734 26.5198 1.15314L9.66169 7.47452C7.16714 8.52252 5.02341 10.2605 3.48221 12.4844C1.94102 14.7083 1.06636 17.3258 0.960938 20.0295V45.1058C1.08936 47.7314 1.76411 50.3014 2.94206 52.6515C4.12002 55.0016 5.77528 57.0801 7.80206 58.7543L22.3146 69.588C25.2815 71.7143 28.8504 72.8366 32.5003 72.7909C36.1537 72.8387 39.7265 71.7164 42.6962 69.588L57.2087 58.7543C59.2355 57.0801 60.8907 55.0016 62.0687 52.6515C63.2466 50.3014 63.9214 47.7314 64.0498 45.1058V20.0295C63.9435 17.3247 63.0674 14.7064 61.5243 12.4824C59.9812 10.2584 57.8354 8.52101 55.3389 7.47452ZM58.9772 45.1058C58.8493 46.9431 58.3584 48.7368 57.5329 50.3832C56.7074 52.0296 55.5637 53.496 54.1678 54.6975L39.6553 65.5313C37.5353 66.9507 35.0415 67.7084 32.4902 67.7084C29.9389 67.7084 27.4451 66.9507 25.3251 65.5313L10.8126 54.6975C9.42042 53.4942 8.28044 52.0271 7.45844 50.3807C6.63645 48.7344 6.14873 46.9416 6.02344 45.1058V20.0295C6.13144 18.3559 6.69257 16.7431 7.64675 15.3638C8.60093 13.9846 9.91225 12.8908 11.4403 12.1995L28.2951 5.87814C31.0358 5.03941 33.9648 5.03941 36.7056 5.87814L53.5603 12.1995C55.0884 12.8908 56.3997 13.9846 57.3539 15.3638C58.3081 16.7431 58.8692 18.3559 58.9772 20.0295V45.1058ZM44.2622 25.1933C44.4974 25.4283 44.684 25.7074 44.8113 26.0147C44.9386 26.3219 45.0041 26.6512 45.0041 26.9837C45.0041 27.3162 44.9386 27.6455 44.8113 27.9527C44.684 28.26 44.4974 28.5391 44.2622 28.7741L29.7497 43.2866C29.2746 43.7598 28.6314 44.0255 27.9609 44.0255C27.2904 44.0255 26.6472 43.7598 26.1722 43.2866L20.7384 37.8495C20.2776 37.3719 20.0227 36.7324 20.0288 36.0687C20.0349 35.405 20.3014 34.7703 20.7709 34.3012C21.2405 33.8321 21.8755 33.5662 22.5392 33.5607C23.2029 33.5553 23.8421 33.8107 24.3193 34.272L27.9677 37.9204L40.6813 25.2068C40.9162 24.9713 41.1951 24.7845 41.5022 24.6569C41.8093 24.5293 42.1385 24.4634 42.4711 24.4631C42.8036 24.4628 43.1329 24.528 43.4403 24.655C43.7476 24.7821 44.0269 24.9684 44.2622 25.2034V25.1933Z" fill="#37C956"/>
</svg>
