<svg
                              width="24"
                              height="25"
                              viewBox="0 0 24 25"
                              fill="none"
                              xmlns="http://www.w3.org/2000/svg"
                            >
                              <path
                                d="M21.443 17.3675C21.233 16.9925 20.978 16.6175 20.693 16.22C20.0148 15.3731 19.5447 14.379 19.3205 13.3175L19.0055 8.8925C18.818 5.465 16.8155 2 12.833 2H11.168C7.18548 2 5.16798 5.465 4.96548 8.885L4.65048 13.3175C4.42721 14.3884 3.95726 15.3925 3.27798 16.25C3.02298 16.64 2.76798 17 2.59548 17.3375C2.41035 17.586 2.29823 17.8812 2.27173 18.1899C2.24523 18.4986 2.3054 18.8086 2.44548 19.085C2.60891 19.3753 2.84968 19.6145 3.14099 19.776C3.4323 19.9375 3.76272 20.0151 4.09548 20H9.88548C9.76213 20.3398 9.7225 20.7044 9.76993 21.0628C9.81736 21.4212 9.95047 21.763 10.158 22.059C10.3655 22.3551 10.6413 22.5968 10.962 22.7636C11.2827 22.9305 11.6389 23.0176 12.0005 23.0176C12.362 23.0176 12.7182 22.9305 13.039 22.7636C13.3597 22.5968 13.6355 22.3551 13.843 22.059C14.0505 21.763 14.1836 21.4212 14.231 21.0628C14.2785 20.7044 14.2388 20.3398 14.1155 20H19.9055C20.2413 20.0122 20.5738 19.9302 20.8654 19.7632C21.1571 19.5961 21.3961 19.3508 21.5555 19.055C21.6957 18.7911 21.7594 18.4934 21.7395 18.1952C21.7197 17.8971 21.617 17.6104 21.443 17.3675ZM12.7505 20.75C12.7505 20.8983 12.7065 21.0433 12.6241 21.1667C12.5417 21.29 12.4245 21.3861 12.2875 21.4429C12.1504 21.4997 11.9997 21.5145 11.8542 21.4856C11.7087 21.4566 11.575 21.3852 11.4702 21.2803C11.3653 21.1754 11.2938 21.0418 11.2649 20.8963C11.236 20.7508 11.2508 20.6 11.3076 20.463C11.3643 20.3259 11.4605 20.2088 11.5838 20.1264C11.7071 20.044 11.8521 20 12.0005 20C12.1994 20 12.3902 20.079 12.5308 20.2197C12.6715 20.3603 12.7505 20.5511 12.7505 20.75ZM20.2505 18.3725C20.2505 18.4325 20.123 18.5 19.9355 18.5H4.09548C3.90798 18.5 3.81048 18.4325 3.78048 18.3725C3.75048 18.3125 3.78048 18.23 3.85548 18.11C4.05798 17.765 4.29048 17.405 4.53048 17.045C5.28048 15.965 6.03048 14.735 6.14298 13.4225L6.46548 8.99C6.62298 6.455 7.95048 3.5 11.168 3.5H12.833C16.0505 3.5 17.378 6.455 17.5355 8.9975L17.858 13.4225C17.948 14.75 18.7505 15.965 19.5005 17.045C19.7405 17.405 19.973 17.795 20.213 18.1775C20.2369 18.2032 20.253 18.2352 20.2597 18.2696C20.2663 18.3041 20.2631 18.3397 20.2505 18.3725Z"
                                fill="black"
                              />
                            </svg>