<svg xmlns="http://www.w3.org/2000/svg" xmlns:xlink="http://www.w3.org/1999/xlink" version="1.0" id="katman_1" x="0px" y="0px" style="enable-background:new 0 0 1191.6 730.6;" xml:space="preserve" viewBox="282.9 254.2 625.8 222.1">
<style type="text/css">
	.st0{fill:#E23744;}
	.st1{fill:#FFFFFF;}
</style>
<path class="st0" d="M282.9,254.2h625.8v222.1H282.9V254.2z"/>
<path class="st1" d="M431.4,334.9l-0.4,13.9l-36.3,39.4c15.1,0,24.8-0.1,30.3-0.5c-1.6,7.5-2.9,13.6-4.2,22.8  c-7.3-0.6-18.6-0.8-30-0.8c-12.7,0-23.7,0.2-32.6,0.8l0.3-14.1l36.3-39.3c-15.9,0-21.7,0.2-28.3,0.3c1.5-7,2.5-14.8,3.5-22.6  c11.5,0.5,16,0.6,31,0.6C414.8,335.5,422.6,335.3,431.4,334.9z M472.6,330.7c-23.6,0-41.7,21.1-41.7,46.3  c0,18.9,10.9,33.5,32.2,33.5c23.7,0,41.7-21.1,41.7-46.5C504.8,345.2,494.1,330.7,472.6,330.7L472.6,330.7z M465.4,390.2  c-5.2,0-8.3-4.7-8.3-14.1c0-13.9,5.7-25.1,12.7-25.1c5.1,0,8.2,4.6,8.2,14.1C478,378.9,472.4,390.2,465.4,390.2L465.4,390.2z   M806.2,329.7c-23.9,0-42.2,21.4-42.2,46.9c0,19.2,11.1,33.9,32.6,33.9c24,0,42.2-21.4,42.2-47.1C838.8,344.4,828,329.7,806.2,329.7  L806.2,329.7z M798.5,390.1c-5.2,0-8.3-4.7-8.3-14.1c0-13.9,5.7-25.1,12.7-25.1c5.1,0,8.2,4.6,8.2,14.1  C811,378.8,805.5,390.1,798.5,390.1z M627.2,358.2c1.9-13,0.9-24.8-13.5-24.8c-10.5,0-21.8,8.9-29.9,23.7  c1.7-12.2,0.7-23.7-13.5-23.7c-10.8,0-22.4,9.3-30.4,24.8c2-10.1,1.6-21.5,1-24c-8.3,1.4-15.6,2.1-25.8,2.4c0.3,7-0.1,16.2-1.5,24.9  l-3.3,22.9c-1.3,9-2.8,19.4-4.2,26h27.1c0.1-4,1.2-10.2,1.9-15.7l2.3-15.7c1.9-10.2,10-22.3,16.3-22.3c3.6,0,3.5,3.5,2.5,10.1  l-2.6,17.7c-1.3,9-2.8,19.4-4.2,26h27.4c0.1-4,1-10.2,1.7-15.7l2.3-15.7c1.9-10.2,10.1-22.3,16.3-22.3c3.6,0,3.5,3.4,2.9,7.9  l-6.5,45.8h25L627.2,358.2z M758.1,386.5l-2.9,18c-4.5,2.4-13,6-22.7,6c-16.6,0-19.9-8.9-17.3-27.7l4.2-30.3h-8.2l2.3-19.6l8.9-0.4  l3.4-14.2l25.2-9.5l-3.2,23.7h17.3c-0.6,2.4-2.6,15.9-3.2,20H745l-3.8,28c-1,7.2-0.4,9.8,4.5,9.8  C749.3,390.3,754.7,388.2,758.1,386.5L758.1,386.5z M662.5,396.2c9.2-1.1,15.5-10,17-18.8l0.3-2.4c-3.9-0.9-9.6-1.6-15.2-0.9  c-5.3,0.6-9.6,2.8-12,6c-1.8,2.3-2.7,5-2.3,8.2C651,393.3,656.3,397,662.5,396.2z M654.7,410.2c-12.9,1.6-21.5-3.5-24-15.2  c-1.6-7.4,0.6-15.7,4.5-20.7c5.2-6.5,13.7-10.7,24.1-12c8.4-1,15.4-0.5,22,0.7l0.3-1.1c0.2-1.8,0.4-3.6,0.1-5.8  c-0.7-5.5-5.1-8.8-15.8-7.5c-7.3,0.9-14.2,3.5-19.6,6.5l-5.2-15.8c7.3-4.2,16.5-7.4,27-8.7c20.1-2.5,34.2,3.9,36,18.7  c0.5,3.9,0.5,8.1,0,11.8c-2.6,18.2-4.2,31.9-5,41.1c-0.1,1.4-0.1,3.9,0,7.3l-24.9,0c0.5-1.4,1-3.4,1.4-5.8c0.3-1.6,0.5-3.6,0.6-6.1  C671,404.8,663.7,409.1,654.7,410.2L654.7,410.2z"/>
</svg>